<?xml version="1.0" encoding="UTF-8"?>
<svg id="Layer_2" data-name="Layer 2" xmlns="http://www.w3.org/2000/svg" viewBox="0 0 128.44 128.83">
  <defs>
    <style>
      .cls-1 {
        fill: #b14969;
      }

      .cls-2 {
        fill: #eb7da6;
      }

      .cls-3 {
        fill: #9a9bb6;
      }

      .cls-4 {
        fill: #f4c4d0;
      }

      .cls-5 {
        fill: #f0eff1;
      }

      .cls-6 {
        fill: #291d51;
      }

      .cls-7 {
        fill: #d9806b;
      }

      .cls-8 {
        fill: #babed0;
      }

      .cls-9 {
        fill: #5d5186;
      }
    </style>
  </defs>
  <g id="Layer_1-2" data-name="Layer 1">
    <g id="Generative_Object" data-name="Generative Object">
      <g>
        <g>
          <path class="cls-8" d="M12.84,103.48c26,33.63,76.68,33.96,102.51,0H12.84Z"/>
          <path class="cls-3" d="M10.02,99.34c.91,1.46,1.76,2.77,2.82,4.14h102.51c1.07-1.4,1.89-2.65,2.82-4.14H44.8c-.59,0-.3-.17-.33-.17-11.47,0-22.97.34-34.45.17Z"/>
        </g>
        <path class="cls-5" d="M44.8,99.34h73.36c.59-.96,1.55-1.95,1.66-2.98H44.88l-.08,2.98Z"/>
        <path class="cls-5" d="M8.37,96.36c.64,1.18.86,1.7,1.66,2.98,11.48.18,22.98-.17,34.45-.17-.1-.51.24-2.6-.25-2.82-.59-.26-11.25-.13-13-.17-.52,1.02-20.22-.43-22.85.17Z"/>
      </g>
      <g>
        <g>
          <g>
            <path class="cls-5" d="M114.35,62.58c.2-.51,3.4-.43,3.56-.33,1.2.76-2.67.19-2.57.83.15.16.45.63.5.83.16.68-.08,1.63-.17,2.32,2.95-.81,3.08,1.26,0,.5,0,.04-.3.49-.33.66,3.9-.23,3.23,1-.17.66-.05.24-.12.33-.17.5l2.98.41c0,.34-2.76.49-3.15.25-.05.18-.12.33-.17.5.81.46,2.33-.07,3.06.17.14.04.48,1.65.17,1.66-2.19.29-1-.85-1.16-.99-.33-.29-1.61-.28-2.07-.33-.18.61-.53,1.41-.83,1.99-.06.5-.26.78-.33,1.16.11.01.24-.02.33,0,2.4-.73,6.86.41,9.03-.17.17-.05.83-.58.91-.75v-24.34c-.35-.36-.72-.8-1.24-.91-2.03-.44-7.12.14-9.52.17-1.2.01-3.65.34-4.31-.5-1.53,1.25-6.79-.36-7.62,1.24-.32.62-.4,13.34,0,13.91,3.74.65,9.88-.79,13.25.58Z"/>
            <g>
              <path class="cls-6" d="M113.03,47.34c2.4-.02,7.49-.61,9.52-.17.52.11.89.55,1.24.91v24.34c-.08.16-.74.7-.91.75-2.16.58-6.62-.57-9.03.17,1.23.34,9.1.37,9.85-.33.16-.15.2-.59.41-.75v-24.01c-.26-.51-.64-1.1-1.24-1.24-1.47-.34-7.23-.05-9.11,0-.3,0-.82-.17-.75.33Z"/>
              <polygon class="cls-5" points="117.75 56.29 105.08 56.54 117.75 56.95 117.75 56.29"/>
              <path class="cls-5" d="M117.91,54.63l-13.17.41,12.17.25c.42-.39,1.75.15.99-.66Z"/>
              <polygon class="cls-5" points="117.91 51.82 104.91 52.23 117.91 52.48 117.91 51.82"/>
              <path class="cls-5" d="M117.75,57.45l-10.52.58c2.21-.19,8.84.67,10.52.08.31-.11.32-.49,0-.66Z"/>
              <path class="cls-5" d="M121.72,49.33c-.13-.06-2.73.22-2.82.33-1.3,1.65,2.26,1.81,2.98,1.49.48-.21.13-1.67-.17-1.82Z"/>
              <polygon class="cls-5" points="117.75 49.33 107.4 49.75 117.91 49.83 117.75 49.33"/>
              <path class="cls-5" d="M121.06,62.08c-1.34-.28-2.73.06-2.07,1.74.07.17,2.61.14,2.73.08.5-.24.42-1.6-.66-1.82Z"/>
              <path class="cls-8" d="M121.56,56.45c-.55-.17-1.83.12-2.48,0l-.08,1.57c.08.11,2.55.15,2.73.08.6-.23.64-1.41-.17-1.66Z"/>
              <path class="cls-5" d="M117.91,60.92c-3.42.2-6.99-.44-10.35.41l5.38.08,4.97-.5Z"/>
              <path class="cls-5" d="M117.91,50.49l-7.2.41c.85.28,6.9.45,7.2.25.13-.09.13-.57,0-.66Z"/>
              <polygon class="cls-5" points="112.62 59.77 107.98 59.77 103.59 60.18 108.31 60.26 112.62 59.77"/>
              <path class="cls-5" d="M109.3,50.49c-.73-.26-5.61-.1-6.38.41.04.32,6.04.37,6.38.25.31-.11.31-.55,0-.66Z"/>
              <path class="cls-5" d="M111.79,53.31c-.46.03-1.31.19-.66.66.85-.14,6.65.23,6.87-.08.14-.2-.23-.37-.41-.41-.33-.08-5.25-.2-5.8-.17Z"/>
              <path class="cls-5" d="M109.14,53.47c-.25-.09-4.98-.08-5.3,0-.21.05-.48.15-.41.41.08.31,5.28.11,5.88.08.23-.11-.04-.45-.17-.5Z"/>
              <path class="cls-5" d="M114.69,70.2c.46.05,1.74.04,2.07.33.16.14-1.03,1.28,1.16.99.31,0-.03-1.61-.17-1.66-.74-.23-2.25.29-3.06-.17-.04.14.04.36,0,.5Z"/>
              <path class="cls-5" d="M117.75,58.77c-2.09.16-4.32-.32-6.38.25l3.39.08,2.98-.33Z"/>
              <path class="cls-5" d="M106.32,57.61h-2.65c-1.86,1.04,3.97,1.15,2.65,0Z"/>
              <path class="cls-5" d="M114.35,62.58c.19.08.91.41.99.5-.11-.64,3.77-.06,2.57-.83-.16-.1-3.36-.18-3.56.33Z"/>
              <path class="cls-5" d="M115.35,67.38c-.05.24-.11.44-.17.66,3.4.34,4.06-.89.17-.66Z"/>
              <path class="cls-5" d="M114.85,69.2c.39.24,3.15.09,3.15-.25l-2.98-.41c-.06.21-.1.45-.17.66Z"/>
              <path class="cls-5" d="M115.68,66.22c-.02.16.03.34,0,.5,3.08.76,2.95-1.3,0-.5Z"/>
              <g>
                <path class="cls-5" d="M121.72,52.48c-.63-.21-1.95.17-2.65.17-.17.1-.15,2.3-.08,2.4.08.12,2.72.15,2.9.08.75-.3.19-2.53-.17-2.65Z"/>
                <path class="cls-5" d="M120.73,53.97c-.72-.07-.64.76.17.5.42-.14.07-.47-.17-.5Z"/>
              </g>
              <g>
                <path class="cls-5" d="M121.39,65.73c-.12-.03-2.33.15-2.4.25-.06.09-.02,2.16.08,2.24l3.06-.25c.09-.57-.17-2.09-.75-2.24Z"/>
                <path class="cls-5" d="M120.73,67.05c-.33-.11-1.2-.01-.91.41.27.39,1.69-.16.91-.41Z"/>
              </g>
              <g>
                <path class="cls-8" d="M121.23,59.27c-.53-.12-1.4.09-1.99,0-1.11,2.46.95,2.01,2.65,1.82.59-.69.19-1.63-.66-1.82Z"/>
                <path class="cls-5" d="M120.73,59.93c-.12-.08-.79.12-.75.41.43.34,1.2-.12.75-.41Z"/>
              </g>
              <g>
                <path class="cls-8" d="M121.56,69.7c-.24-.08-2.55.07-2.65.17-1.01,1.53,2.15,1.57,2.82,1.32s.47-1.29-.17-1.49Z"/>
                <path class="cls-5" d="M120.73,70.2l-.58.25c.03.17.95.17.58-.25Z"/>
              </g>
            </g>
          </g>
          <g>
            <path class="cls-6" d="M67.99,54.3l-1.08,1.99c-.09,0-.94-1.6-1.08-.83,1.63,1.54,2.64,4.48,3.81,6.38-.14.43-2.25.14-2.65.08.43.58-1.25.31-1.16.99.49-.23.91-.32,1.41-.5h45.54c1.37.19,1.98.76,3.06,1.49-.04-.2-.35-.67-.5-.83-.08-.09-.81-.42-.99-.5-3.37-1.37-9.51.07-13.25-.58-.4-.57-.32-13.29,0-13.91.83-1.61,6.09.01,7.62-1.24.08-.07.65-1,.66-1.08.24-1.17.23-13.36,0-14.57-.16-.85-1.09-1.75-1.9-1.9-2.55-.49-22.6-.44-25.34,0-1.15.19-2.03.87-2.24,2.07-.31,1.82-.32,14.77,0,16.56.13.73.63,1.56,1.41,1.74,3.6.82,14.18-1.59,16.31,1.74,1.09,1.7.22,3.67.99,5.13.46.87,2.07,1.28,2.15,1.49.25.61-.19,3.13,0,3.97l-30.72.08c-.05-.92-3.1-5.23-3.06-5.55,0-.08.82-.68.99-1.16.19-.55-.02-.92,0-1.08Z"/>
            <path class="cls-4" d="M107.65,29.63h-25.83c-.85.29-1.2.58-1.57,1.41l.17,17.55c.15.33,1.07.84,1.41.91,3.77.74,15.08-1.95,16.48,2.57.6,1.95-.64,4.7,2.24,5.55.49-.37-.5-8.74.41-9.85,1.59-1.94,7.28.71,8.11-1.99.39-1.26.37-11.9.17-13.58-.15-1.18-.41-2.05-1.57-2.57Z"/>
            <path class="cls-4" d="M100.69,47.51c-3.39.05-6.8-.11-10.18.08,3.38.09,6.82.25,10.18-.08Z"/>
          </g>
        </g>
        <g>
          <path class="cls-5" d="M8.2,96.03c7.67-.05,15.35,0,23.02.17.23-.44-1.09-1.57.99-2.15.67-.19,2.98-.03,3.15-.41l.66-11.1c-1.21.92-1.4,3-3.23,2.73-.87-.13-14.77-7.68-15.4-8.28-.2-.19-.38-.39-.58-.58l1.32-7.04c-2.53-.11-10.02.72-11.68-.17-.7-.37-1.99-1.92-1.57-2.82.73-1.6,1.92-.48,2.82-.33l6.79-2.32c-1.05-.32-3.02-.86-4.06-.99-.7-.09-2.29.48-2.4-.17-.05-.26.23-.54.41-.66.87-.56,7.48-1.5,8.61-1.32,1.51.24,2.35,1.25,3.06,2.48.09.15.65,1.25.66,1.32,0,.02.11-.07.17.33,1.05.54,2.01,1.32,2.98,1.99,1.44.99,3.07,1.82,4.47,2.82.5-.83.76-1.77,1.16-2.65.04-1.18,2.9-7.17,2.82-7.7-.02-.11-1.26-1.23-1.49-1.66-.63-1.18-.95-3.19-.5-4.47.19-.53,1.31-1.23,1.32-1.32.02-.1-.67-.96-.5-1.99.04-.24.66-.93.66-.99.03-.29-.34-.43-.33-.5.03-.49.35-.9.33-.99-.07-.34-.92-1.23-.99-1.82-.3-2.35,1.69-3.03,1.82-3.64.02-.11-.28-1-.17-1.49.35-1.46,1.9-1.94,1.99-2.15.25-.62-.2-1.77.5-2.98,1.01-1.75,3.25-1.47,3.31-1.66.08-.22-.29-1.54-.17-2.15.25-1.22,1.9-1.59,2.15-1.99.07-.1.16-1.33.5-1.82.92-1.34,2.28-.78,3.06-1.08.2-.08,1.37-2.54,2.98-2.98s2.86.53,3.15.5c.1-.01,1.1-1,1.66-1.16,3.49-1,4.21,1.55,4.8,1.66.25.04,1.54-.57,2.82-.17.54.17,1.46,1.27,1.66,1.32.92.27,1.72-.22,2.98.5,1.33.76,1,1.8,1.41,2.4.32.47,1.89.91,2.48,1.99.78,1.42.21,2.98.33,3.31.06.15,1.83.79,2.48,1.82,1.37,2.15.28,4.04.5,4.64.06.16,1.84.62,1.99,2.65.16,2.25-1.79,3.12-1.82,3.31-.02.15.79,1.42.33,2.98s-2.07,1.78-2.48,2.48c-.06.11.07.76-.17,1.16-.26.43-1.04.56-1.16.83-.07.17.21.27.17.58-.02.15.19.53,0,1.08-.17.48-.99,1.08-.99,1.16-.03.32,3.02,4.63,3.06,5.55l30.72-.08c-.19-.84.25-3.37,0-3.97-.09-.21-1.69-.62-2.15-1.49-.77-1.46.1-3.43-.99-5.13-2.14-3.33-12.71-.92-16.31-1.74-.78-.18-1.28-1.01-1.41-1.74-.32-1.79-.31-14.74,0-16.56.21-1.2,1.09-1.88,2.24-2.07,2.74-.44,22.79-.49,25.34,0,.82.16,1.74,1.06,1.9,1.9.23,1.22.24,13.4,0,14.57-.02.08-.58,1.01-.66,1.08.66.84,3.1.51,4.31.5-.07-.5.44-.32.75-.33,1.88-.05,7.64-.34,9.11,0,.6.14.98.73,1.24,1.24v24.01c-.22.15-.26.6-.41.75-.75.71-8.62.67-9.85.33-.09-.02-.23.01-.33,0-1.02,5.04-4.38,14.93-6.29,19.87-.39,1-.63,2.26-1.82,2.65.66.3,1.6.16,2.32.17l12.42-.17c5.36-6.46,8.44-24.76,8.28-33.04C127.37,9.06,63.3-19.69,22.36,15.38-1.63,35.94-6.26,68.41,8.2,96.03Z"/>
          <path class="cls-6" d="M8.2,96.03c.05.1.07.15.17.33,2.64-.6,22.33.85,22.85-.17-7.67-.17-15.34-.22-23.02-.17Z"/>
          <path class="cls-5" d="M107.73,96.03c4.14,0,8.28.01,12.42.17.01-.1-.02-.3,0-.33l-12.42.17Z"/>
          <g>
            <path class="cls-6" d="M96.72,21.34c-2.75-.05-13.7-.47-15.57.17-1.37.46-1.36,2.75.17,3.15h27.32c1.58-.41,1.38-2.8,0-3.15-1.66-.42-9.53-.13-11.92-.17Z"/>
            <path class="cls-5" d="M108.14,21.68h-26.5c-1.38.48-1.69,1.74-.5,2.65l27.16.17c1.73-.62,1.65-2.33-.17-2.82Z"/>
            <path class="cls-6" d="M105.16,22.5c-.99-.34-1.2.9-.66,1.16.8.38,1.55-.86.66-1.16Z"/>
            <path class="cls-6" d="M102.84,22.5c-.91-.08-.86,1.24-.17,1.32.73.08,1.07-1.25.17-1.32Z"/>
            <path class="cls-6" d="M106.98,22.84c-.66-.16-.46.77-.17.83s.68-.7.17-.83Z"/>
          </g>
        </g>
      </g>
      <g>
        <g>
          <path class="cls-6" d="M57.55,52.31c-.13.03-.34-.08-.33.17.37.03,3.35.57,3.56.66,1.28.55,3.22,7.16,3.89,8.69-.94.39-2.01.55-2.82,1.24-2.18,1.87-3.02,8.85-4.14,9.61.22.28.08.62,0,.91-1.36,4.8-3.3,10.24-4.97,14.99-.49,1.38-.91,2.81-1.32,4.22-.37.46-1.01.17-1.49.25-3.25.5-7.26.49-10.6.66-1.2.06-2.46.36-3.64,0-.27.76-2.7.58-3.48.33-2.08.59-.77,1.71-.99,2.15,1.75.04,12.41-.1,13,.17.49.22.14,2.31.25,2.82.03,0-.26.17.33.17l.08-2.98h74.94l.33-.17c-4.14-.15-8.28-.16-12.42-.17-.72,0-1.66.14-2.32-.17l-41.48.17c-.54-.31.27-2.43.58-2.82-.05,0-.13-.57-.91-.5-.06,0-.86.5-.99.5-1.59,0-5.97.47-7.12.17-.15-.04-.88-.62-.91-.75,1.92-5.93,3.61-11.99,5.63-17.89.95-2.76,1.87-6.12,3.15-8.69.63-1.27,1.07-2.49,2.48-3.15-.09-.68,1.59-.41,1.16-.99-.39-.05-1.53,0-1.82-.25-.45-.4-1.96-6.86-2.98-7.78.1-.77,3.24,1.2,3.48,1.41-.58-1.15-2.26-1.75-3.39-2.15-.03,0-.47.34-.5.33-.04-.01-.45-.6-.66-.66-.53-.14-2.79-.03-2.4-.83-.2.11-.88.26-1.16.33Z"/>
          <path class="cls-6" d="M64.51,93.22c-.31.39-1.12,2.51-.58,2.82l41.48-.17c1.19-.39,1.43-1.65,1.82-2.65-2.32.29-4.7.17-7.04.17-.07,0-.41-.49-.5-.5-.92-.09-1.46.5-1.99.5-11.07.04-22.14-.06-33.2-.17Z"/>
          <path class="cls-3" d="M65.83,62.91c-1.41.66-1.86,1.88-2.48,3.15,1.46-1.17,3.17-1.71,5.05-1.82,13.46-.8,29.12.32,42.56.99,2.81,1.25,3.23,4.18,2.9,6.96.3-.57.65-1.38.83-1.99.04-.14-.04-.36,0-.5.05-.16.11-.32.17-.5.06-.21.11-.45.17-.66.04-.16.11-.26.17-.5.05-.22.12-.42.17-.66.04-.17.33-.63.33-.66.03-.16-.02-.34,0-.5.09-.68.32-1.64.17-2.32-1.09-.73-1.69-1.3-3.06-1.49h-45.54c-.5.17-.92.27-1.41.5Z"/>
          <g>
            <path class="cls-9" d="M63.35,66.06c-1.27,2.57-2.2,5.93-3.15,8.69-2.02,5.9-3.71,11.95-5.63,17.89.03.13.76.7.91.75,1.15.31,5.53-.16,7.12-.17.13,0,.94-.49.99-.5.78-.08.86.5.91.5,11.07.11,22.13.2,33.2.17.53,0,1.07-.59,1.99-.5.08,0,.42.5.5.5,2.34,0,4.72.13,7.04-.17,1.91-4.94,5.28-14.83,6.29-19.87.08-.38.27-.66.33-1.16.33-2.77-.09-5.7-2.9-6.96-13.44-.67-29.1-1.79-42.56-.99-1.88.11-3.59.65-5.05,1.82Z"/>
            <path class="cls-3" d="M91.75,74.67c-3.41-1.03-8.39,2.71-9.52,5.88-2.65,7.43,5.53,5.49,8.61,1.32.98-1.32,3.18-6.52.91-7.2Z"/>
          </g>
        </g>
        <g>
          <path class="cls-6" d="M29.56,66.89c2.59-5.64,2.57-9.82,9.27-12.59-.02-.24,1.17-.96,1.24-.99.19-.07,1.05.13,1.08.08.27-.55-.42-1.4.33-2.07,1.92-1.72,2.51.9,2.98,1.99,2.83-1.42,3.4-3.29,4.14-6.13.18-.68.17-2.27.33-2.65-2.82.57-3.23-5.85-.25-5.13,1.4.33.36,1.68.41,1.9.11.47.64.06.66.08,1.45-.55,1.84-2.5,1.82-3.89,0-.21-.54-1.27-.5-1.32.11-.16.88-.01,1.24-.25.46-.3,1.24-1.58,1.49-1.66,1.36-.43,8.98.47,9.69,1.9,1.44,2.93-1.63,14.03-4.8,15.82-.39.8,1.87.68,2.4.83.21.06.62.65.66.66.03,0,.47-.34.5-.33,1.14.4,2.81,1.01,3.39,2.15.02.02.1.1.17.17.14-.77.99.83,1.08.83l1.08-1.99c.04-.31-.24-.41-.17-.58.11-.27.9-.4,1.16-.83.24-.4.1-1.05.17-1.16.42-.7,2.02-.9,2.48-2.48s-.35-2.83-.33-2.98c.03-.2,1.98-1.06,1.82-3.31-.14-2.03-1.93-2.49-1.99-2.65-.22-.59.87-2.49-.5-4.64-.65-1.03-2.43-1.67-2.48-1.82-.12-.33.45-1.89-.33-3.31-.59-1.08-2.17-1.52-2.48-1.99-.4-.6-.08-1.64-1.41-2.4-1.26-.72-2.06-.23-2.98-.5-.2-.06-1.11-1.15-1.66-1.32-1.27-.4-2.56.21-2.82.17-.6-.1-1.31-2.65-4.8-1.66-.56.16-1.56,1.15-1.66,1.16-.29.03-1.46-.95-3.15-.5s-2.78,2.9-2.98,2.98c-.78.3-2.14-.26-3.06,1.08-.34.49-.43,1.72-.5,1.82-.25.39-1.9.77-2.15,1.99-.13.61.24,1.93.17,2.15-.06.18-2.3-.09-3.31,1.66-.7,1.21-.24,2.36-.5,2.98-.09.21-1.64.69-1.99,2.15-.12.49.19,1.38.17,1.49-.13.61-2.12,1.29-1.82,3.64.08.59.92,1.48.99,1.82.02.09-.3.5-.33.99,0,.07.36.21.33.5,0,.06-.62.76-.66.99-.17,1.03.52,1.88.5,1.99-.02.09-1.14.8-1.32,1.32-.46,1.28-.13,3.3.5,4.47.23.43,1.47,1.55,1.49,1.66.08.54-2.78,6.52-2.82,7.7Z"/>
          <path class="cls-5" d="M32.21,72.52c.18.22.57.68.41.99l-8.69-6.79c-.98-.67-1.93-1.45-2.98-1.99.16,1.23-.78,3.9-1.16,5.13s-.83,2.57-1.32,3.81l14.82,8.61c1.93.06,3.18-4.83,4.06-6.13.15-.66.34-1.33.5-1.99.11-.48.04-1.29.5-1.57,1.39,6.6.07,13.8.66,20.37.04.44-.09.45.33.75,3.34-.17,7.35-.17,10.6-.66,1.07-5.64,1.26-11.36.83-17.06-.72-1.03-.77-2.55-1.32-3.64-.52-1.04-1.43-1.92-2.32-2.65-1.54,1.53-4.95.98-5.63-1.24-.81-2.65,1.49-3.45,1.49-4.47,0-.49-1.78-9.05-1.99-9.69-2.54.98-5.34,2.92-6.62,5.38-.97,1.87-3.24,9.23-2.82,11.1.13.55.7,1.12.66,1.74Z"/>
          <path class="cls-8" d="M38.84,54.3c-6.7,2.77-6.69,6.95-9.27,12.59-.4.88-.66,1.82-1.16,2.65.85.6,3.26,2.3,3.81,2.98.04-.62-.54-1.18-.66-1.74-.42-1.86,1.84-9.22,2.82-11.1,1.28-2.47,4.08-4.41,6.62-5.38-.07-.21-.19-.42-.25-.66-.69-.05-1.29.41-1.9.66Z"/>
          <path class="cls-6" d="M18.14,69.37l-1.32,7.04c.2.19.38.39.58.58.64.6,14.54,8.15,15.4,8.28,1.83.27,2.02-1.81,3.23-2.73l-.66,11.1c-.17.38-2.48.22-3.15.41.78.25,3.21.43,3.48-.33.4-3.44.07-7.29.5-10.68.37-2.94,1.94-5.9,1.66-8.86-.15.66-.35,1.33-.5,1.99-.74,3.21-1.04,6.99-4.06,8.94l-15.73-8.28c-.98-.71.57-2.3.91-3.15.5-1.24.93-2.53,1.32-3.81-.64-.83-1.07-.47-1.66-.5Z"/>
          <path class="cls-6" d="M32.21,72.52c-.55-.68-2.96-2.38-3.81-2.98-1.4-1-3.03-1.83-4.47-2.82l8.69,6.79c.16-.32-.23-.77-.41-.99Z"/>
          <path class="cls-2" d="M55.73,54.96c-1.82,3.25-8.66.66-10.93-1.16,2.09,4.86,4.37,11.54,5.3,16.73.37-.39.42.43.5.83.13,2.31,6.14,1.99,7.12,1.32,1.12-.76,1.96-7.74,4.14-9.61-1.62-3.6-2.21-7.99-5.46-10.6-.33.33-.25,1.75-.66,2.48Z"/>
          <path class="cls-8" d="M37.85,74.17c.28,2.96-1.28,5.92-1.66,8.86-.43,3.39-.09,7.24-.5,10.68,1.19.36,2.44.06,3.64,0-.42-.3-.29-.3-.33-.75-.59-6.57.73-13.77-.66-20.37-.45.28-.38,1.09-.5,1.57Z"/>
          <path class="cls-1" d="M52.75,88.58c1.67-4.75,3.61-10.18,4.97-14.99.08-.29.22-.63,0-.91-.98.66-6.99.99-7.12-1.32,1.29,6.42,2.07,9.22,1.82,16.48-.01.29-.15.82.33.75Z"/>
          <path class="cls-5" d="M56.39,52.48c3.25,2.61,3.85,7,5.46,10.6.8-.69,1.87-.86,2.82-1.24-.68-1.54-2.62-8.14-3.89-8.69-.21-.09-3.19-.63-3.56-.66-.22-.02-.69-.13-.83,0Z"/>
          <path class="cls-1" d="M50.1,70.53c.24,1.35.53,2.79.66,4.14.04.43-.03.89,0,1.32.43,5.7.24,11.42-.83,17.06.48-.07,1.12.21,1.49-.25.42-1.41.84-2.84,1.32-4.22-.48.08-.34-.45-.33-.75.25-7.26-.53-10.06-1.82-16.48-.08-.4-.13-1.22-.5-.83Z"/>
          <path class="cls-5" d="M66.99,61.92c.4.05,2.51.35,2.65-.08-1.16-1.9-2.18-4.84-3.81-6.38-.07-.06-.14-.15-.17-.17-.24-.21-3.37-2.18-3.48-1.41,1.02.93,2.53,7.38,2.98,7.78.29.26,1.43.2,1.82.25Z"/>
          <path class="cls-5" d="M41.49,51.32c-.1,1.73,1.44,11.88,2.15,12.67.38.42,1.55.18,2.24.41,1.51.52,2.08,2.36,1.9,3.81,1.52.6,1.59,2.92,1.99,4.31.17.59.48,1.79.99,2.15-.14-1.36-.42-2.79-.66-4.14-.93-5.18-3.21-11.87-5.3-16.73-.02-.04-.25-.31-.33-.5-.47-1.08-1.06-3.7-2.98-1.99Z"/>
          <path class="cls-8" d="M37.35,76.16c-.87,1.3-2.12,6.18-4.06,6.13l-14.82-8.61c-.34.84-1.89,2.44-.91,3.15l15.73,8.28c3.02-1.95,3.32-5.74,4.06-8.94Z"/>
          <path class="cls-5" d="M47.12,69.7c.88.73,1.79,1.61,2.32,2.65l.33.17c-.4-1.38-.47-3.71-1.99-4.31-.05.43-.38,1.21-.66,1.49Z"/>
          <path class="cls-3" d="M50.76,75.99c-.03-.43.04-.89,0-1.32-.52-.36-.82-1.56-.99-2.15l-.33-.17c.55,1.09.61,2.61,1.32,3.64Z"/>
          <g>
            <path class="cls-7" d="M49.77,41.38c.61.71.5,1.85,0,2.65.55,4.21,3.42,7.75,7.78,8.28.28-.07.96-.22,1.16-.33,3.17-1.79,6.24-12.89,4.8-15.82-.71-1.44-8.33-2.33-9.69-1.9-.25.08-1.03,1.35-1.49,1.66-.37.24-1.13.09-1.24.25-.04.06.49,1.11.5,1.32.02,1.39-.37,3.34-1.82,3.89Z"/>
            <path class="cls-1" d="M48.94,44.53c-.16.38-.15,1.97-.33,2.65.99,1.62,1.72,3.43,2.98,4.89,1.16,1.34,2.46,2.32,4.14,2.9.41-.73.33-2.16.66-2.48.13-.13.61-.02.83,0,0-.25.2-.13.33-.17-4.36-.53-7.24-4.07-7.78-8.28-.03.04-.65.06-.83.5Z"/>
            <path class="cls-7" d="M48.61,47.18c-.74,2.83-1.31,4.7-4.14,6.13.08.18.31.45.33.5,2.27,1.82,9.11,4.41,10.93,1.16-1.68-.58-2.98-1.56-4.14-2.9-1.26-1.45-1.99-3.27-2.98-4.89Z"/>
            <g>
              <path class="cls-7" d="M8.04,62.58c.9-.16,1.99-.27,2.9-.17.04,0,.51.47.66.5,1.7.27,3.41-.01,4.89,1.49.2.2.68.74.66.99,1.92.27,2.58-.62,2.98-2.32-.72-1.24-1.55-2.25-3.06-2.48-1.13-.18-7.75.77-8.61,1.32-.19.12-.46.4-.41.66Z"/>
              <path class="cls-1" d="M4.89,66.39c-.41.9.87,2.44,1.57,2.82,1.66.88,9.15.05,11.68.17.59.03,1.01-.34,1.66.5.38-1.23,1.32-3.9,1.16-5.13-.05-.4-.16-.31-.17-.33-.24.43-.35,3.37-.75,3.48-.07.02-.82-.92-1.16-.99-.96-.2-1.73.69-2.65.83-3.69.57-5.81.77-9.27-.33-.74-.24-1.3-.83-2.07-.99Z"/>
              <path class="cls-1" d="M17.14,65.4c-.06.85-1.34.64-1.99.66.13.45-.26.58-.58.66-1.26.32-5.3.98-6.04-.33-.04,0-.78-.32-.83-.33-.9-.15-2.08-1.27-2.82.33.77.16,1.33.76,2.07.99,3.46,1.1,5.58.9,9.27.33.92-.14,1.69-1.03,2.65-.83.34.07,1.09,1.01,1.16.99.39-.11.51-3.05.75-3.48-.02-.07-.58-1.17-.66-1.32-.4,1.7-1.06,2.59-2.98,2.32Z"/>
              <path class="cls-7" d="M14.49,63.74l-6.79,2.32c.05,0,.78.33.83.33,1.25.16,4.97-.28,6.62-.33.65-.02,1.93.19,1.99-.66.02-.25-.46-.79-.66-.99-.67.04-1.37-.47-1.99-.66Z"/>
              <path class="cls-1" d="M8.04,62.58c.11.64,1.7.07,2.4.17,1.04.14,3,.67,4.06.99.62.19,1.31.7,1.99.66-1.48-1.5-3.19-1.22-4.89-1.49-.15-.02-.62-.49-.66-.5-.91-.11-2,0-2.9.17Z"/>
              <path class="cls-1" d="M8.53,66.39c.75,1.31,4.79.65,6.04.33.32-.08.71-.21.58-.66-1.65.05-5.38.49-6.62.33Z"/>
            </g>
            <g>
              <path class="cls-7" d="M48.94,44.53c.18-.44.8-.46.83-.5.5-.8.61-1.94,0-2.65-.02-.03-.56.38-.66-.08-.05-.22.99-1.57-.41-1.9-2.98-.71-2.57,5.7.25,5.13Z"/>
              <path class="cls-9" d="M48.36,40.39c-1.07-.83-2.43,3.12.25,1.9-.73-.47.11-1.22-.25-1.9Z"/>
            </g>
          </g>
          <g>
            <path class="cls-6" d="M38.84,54.3c.62-.26,1.21-.71,1.9-.66.05.24.18.46.25.66.21.63,1.99,9.19,1.99,9.69,0,1.03-2.3,1.82-1.49,4.47.68,2.22,4.09,2.77,5.63,1.24.28-.28.61-1.06.66-1.49.18-1.45-.39-3.29-1.9-3.81-.68-.23-1.85.01-2.24-.41-.72-.79-2.25-10.94-2.15-12.67-.75.67-.06,1.52-.33,2.07-.02.05-.89-.16-1.08-.08-.07.03-1.26.75-1.24.99Z"/>
            <g>
              <path class="cls-5" d="M45.05,64.57c-4.65-.65-4.17,7.2.99,5.3,2.38-.87,1.42-4.96-.99-5.3Z"/>
              <g>
                <path class="cls-6" d="M45.55,65.4c-.13-.03-2.46.35-2.57.41-.99.62-.63,4.14,2.4,3.56,2.04-.39,1.45-3.72.17-3.97Z"/>
                <path class="cls-5" d="M44.88,66.89c-1.73-.15-2.6,1.58-.99,1.99,2.32.59,3.23-1.79.99-1.99Z"/>
              </g>
            </g>
          </g>
        </g>
      </g>
    </g>
  </g>
</svg>