<?xml version="1.0" encoding="UTF-8"?>
<svg id="Layer_2" data-name="Layer 2" xmlns="http://www.w3.org/2000/svg" xmlns:xlink="http://www.w3.org/1999/xlink" viewBox="0 0 128.38 128.74">
  <defs>
    <style>
      .cls-1 {
        fill: #51527b;
      }

      .cls-2 {
        fill: url(#linear-gradient-4);
      }

      .cls-3 {
        fill: url(#linear-gradient-3);
      }

      .cls-4 {
        fill: url(#linear-gradient-2);
      }

      .cls-5 {
        fill: url(#linear-gradient);
      }

      .cls-6 {
        fill: #8abece;
      }

      .cls-7 {
        fill: #e4e4e6;
      }

      .cls-8 {
        fill: #5f9fb5;
      }

      .cls-9 {
        fill: #fff;
      }

      .cls-10 {
        fill: #1f2453;
      }

      .cls-11 {
        fill: #f6ba48;
      }

      .cls-12 {
        fill: #b5d2dd;
      }

      .cls-13 {
        fill: #da8d80;
      }

      .cls-14 {
        fill: #92679d;
      }
    </style>
    <linearGradient id="linear-gradient" x1="86.97" y1="47.14" x2="117.42" y2="73.95" gradientUnits="userSpaceOnUse">
      <stop offset="0" stop-color="#51527b"/>
      <stop offset="1" stop-color="#1f2453"/>
    </linearGradient>
    <linearGradient id="linear-gradient-2" x1="42.04" y1="57.36" x2="56.81" y2="99.04" gradientUnits="userSpaceOnUse">
      <stop offset="0" stop-color="#e4e4e6"/>
      <stop offset="1" stop-color="#8abece"/>
    </linearGradient>
    <linearGradient id="linear-gradient-3" x1="58.45" y1="68.85" x2="58.7" y2="86.23" gradientUnits="userSpaceOnUse">
      <stop offset="0" stop-color="#b5d2dd"/>
      <stop offset="1" stop-color="#b5d2dd"/>
    </linearGradient>
    <linearGradient id="linear-gradient-4" x1="44.92" y1="69.49" x2="54.14" y2="85.39" gradientUnits="userSpaceOnUse">
      <stop offset="0" stop-color="#e4e4e6"/>
      <stop offset="1" stop-color="#b5d2dd"/>
    </linearGradient>
  </defs>
  <g id="Layer_1-2" data-name="Layer 1">
    <g id="Generative_Object" data-name="Generative Object">
      <g>
        <path class="cls-7" d="M128.06,72.47l-4.22,15.73h-17.31c-.76-.89-.79-2.3-1.16-3.31,9.65-1.89,17.1-10.3,13.41-20.45-.26-.71-2.18-3.59-2.15-3.81.03-.24,3-2.7,2.82-3.81-.7-.29-1.65.55-2.4.58-4.37.14-9.45-10.88-11.84-14.16-.68-.94-1.42-1.91-2.15-2.82-.79-.98-2.06-1.32-2.15-2.57-.02-.21,0-.45,0-.66,0-.02.33-.13.33-.25.01-.44.1-2.61-.08-2.73-3.09.12-6.19-.12-9.27-.17-.38,0-1.1.5-1.16.5-.07,0-.42-.49-.5-.5-.39-.01-1.11.18-1.41.17-1.78-.1-1.54-.54-1.49-2.4l-.33.08-11.84.17-.33-.66c-.12,1.02-1.06.78-1.32,0l-.33.66-.33-.66c.21,1.59-1.22.15-1.32.17-.05,0-.48.62-.83.66-.81.09-1.4-.65-1.49-.66-.36-.03-.21.34-.33.33-.13-.01-.04-.33-.17-.33-1.15-.04-1.79.96-2.65.17-1.45.85-3.92-1.12-3.73,2.32-.89,0-2.01.33-2.9.33-10.65.07-21.31-.05-31.96,0-.8.36.2,2.48.25,2.98l-.17,7.62c-.03.08-.14.31-.17.33l-.33.17c-.89.24-1.13-.03-1.66,0-.18,0-.43,0-.66,0-1.79.07-3.59-.19-5.13-.17-.14,0-.16.12-.33.17-1.38.36-.43.39-.83,1.41-.13.33-1.21,1.22-.66,2.15.08.14,2.44.24,2.82.25.2,0,.3,0,.5,0,.13,0,.71.17.75.17.14-.03-.02-.23.25-.33.19.51.3.18.5.17.39-.03.79-.17.83-.17.14.4.36.4.5,0,.27.01-.14.33.83.33.38,0,.55-.16.66-.17.8,0,.66-.15.83-.17.14.4.36.4.5,0,.37-.02-.28.51.99,0,.19.53.33.16.5.17.44.02.43.08.99,0,.01.26.31.16.5.17.22,0,.44,0,.66,0s.62.11.66-.17c.29,0,.55-.01.83,0,.2,0,.34,0,.5,0,.28,0,.56,0,.83,0,.18,0,.34,0,.5,0,.25,0,.81.16.99.17.11,0,.22,0,.33,0,.78,0,1.53-.1,2.32,0,.17.02.49.07.5-.17.28.02.64-.01.83,0,.29.02.45,0,.5,0,.21.01.58.15.83.17.2,0,.63.1.66-.17.31.05.48.14.83.17.18.01.49.08.5-.17.18.05.55.33.58.33.13,0-.02-.27.25-.33.04.28.45.15.66.17.29.02.38.01.66,0,.16,0,.33.01.5,0,.64-.06,1.02-.33,1.16-.33l-.08.33c.34.13.39-.17.41-.17.28.03.51.19.99.17.16,0,.34.06.33-.17,1.07.37.64-.01.99,0h.5c.16,0,.6.15.83.17.18.01.49.08.5-.17.22.06.37.33.41.33.17,0,.44-.43.58-.5.13.49.31.16.33.17.67.12.46.14,1.16,0,.02,0,.21.32.33-.17.25.13.14.33.25.33.43.02.48-.1.75-.17,0,.23.17.16.33.17.27.01.55,0,.83,0,.16,0,.34.02.5,0,.68-.07.66-.24.99-.33.19.53.34.15.5.17.14,0,.71.17.75.17.12-.02-.02-.2.25-.33.13.49.31.16.33.17.56.06.56.1,1.16,0,0,.21.17.19.33.17.43-.07.68-.14,1.16-.17.17,0,.31.36.5-.17.76.25.38.11,1.16.17h.33c.66.02.67.17,1.49,0,.02,0,.21.32.33-.17.16.08.37.48.58.5.55.05.3-.22.58-.33.03-.01.29.51.33-.17.44.21.51.2,1.16.33.15.03.34.04.33-.17.38.01.78,0,1.16,0,.11,0,.23,0,.33,0,.44,0,1.14-.17,1.32-.17.02,0-.05.33.08.33.38.01.23-.33.25-.33.07,0,1.18.5,1.24.5.54.01.95-.25,1.41-.33.14-.02.31.37.5-.17.78.32.34.13.99.17.15,0,.22,0,.33,0,.33,0,.67,0,.99,0,.18,0,.51.48.5-.17.27.1.12.32.25.33.44.03.58-.28.75-.33.02.27.31.14.5.17.79.11.39-.05.83-.17.04.67.3.16.33.17.2.01.47,0,.5,0s.33.45.5,0c.48.14.54.05.99,0,.15-.02.31.37.5-.17.16.03.86.33.91.33.13,0-.02-.23.25-.33.19.52.3.18.5.17.32-.02.46-.17.83,0-.15.43-.24.87-.33,1.32-1.48-.56-3.71-.36-5.38-.33-18.44.33-36.85,1.04-55.31.83-2.01.43-1,4.5-1.57,6.46-.23-.06-.32.11-.5.17-.15.05-.53.16-.66.17,0-.69-.46-.17-.5-.17-.35.03-2.58.08-2.65.25.16.69-.21,2.84,0,3.31.18.41,1.24.14,1.82.41v26.25c-.1.23-1.82.4-2.15.41-4.27.17-8.71-.47-13-.17l-2.07-5.13C-5.32,53.81,5.95,23.42,32.59,8.54c46.88-26.18,100.37,11.4,95.47,63.92Z"/>
        <g>
          <g>
            <path class="cls-9" d="M54.95,11.52c4.99-.65,7.8,2.71,8.94,7.12,5.39-4.63,15.91-2.79,13.41,5.96l-51.42-.08c1.48-4.57,7.3-4.6,11.18-3.39.79-1.62.93-3.49,1.9-5.05,2.06-3.3,6.29-4.59,10.02-4.06.66.09,2.43,1.05,2.82.99.17-.02,2.1-1.35,3.15-1.49Z"/>
            <path class="cls-9" d="M87.57,18.48c3.58-.44,4.07.95,6.62,2.15,4.52,2.14,10.46-1.2,13.33,3.89l-25.59.08c-.37-2.84,3-5.8,5.63-6.13Z"/>
          </g>
          <g>
            <path class="cls-12" d="M27.54,44.98l.17-7.62c.14,1.44.45,6.39.17,7.54-.04.14-.32.06-.33.08Z"/>
            <g>
              <path class="cls-13" d="M12.97,79.59c.48-.12.48-.44.33-.83.36-.02.72,1.32.99.58-.74-.94-1.33-1.98-1.82-3.06.22-.63,2.14-1.39,2.24-1.49.16-.19.05-.45.08-.5.43-.48.57-1.83,1.9-1.99,3.31-.39,3.13,6.25,1.74,8.2-1.6,2.24-3.87.19-5.46-.91Z"/>
              <path class="cls-13" d="M11.64,64.85c-.54,2-.61,4.56-.5,6.62-.64.46-.32,2.38-.17,3.06.39,1.69,1.81,2.92,2.32,4.22.15.39.15.71-.33.83-5.64-3.89-4.67-5.52-3.48-11.34.3-1.45-.72-4.42,2.15-3.39Z"/>
              <path class="cls-13" d="M14.79,74.29s.08.31-.08.5c-.09.11-2.02.86-2.24,1.49-.96-2.11-1.19-2.34-1.32-4.8-.11-2.06-.04-4.63.5-6.62,2.88,1.02.92,7.49,3.15,9.44Z"/>
              <path class="cls-7" d="M11.14,71.47c.13,2.46.37,2.69,1.32,4.8.49,1.09,1.08,2.13,1.82,3.06-.28.74-.63-.6-.99-.58-.51-1.3-1.93-2.53-2.32-4.22-.16-.68-.47-2.6.17-3.06Z"/>
            </g>
          </g>
        </g>
      </g>
      <g>
        <g>
          <path class="cls-14" d="M17.44,88.37c.16.35-.17.63-.17.66-1.46.88-7.48,1.26-8.11,2.57-1.23,2.53,3.44,1.96,4.72,2.4l71.46.33c.09,3.77-.35,10.78.5,14.16.49,1.94,2.33,2.9,4.14,2.07.48,4.08,1.37,8.04,1.99,12.09-34.77,16.47-79.64-1.7-89.59-39.58l2.07,5.13c4.29-.31,8.73.34,13,.17Z"/>
          <path class="cls-14" d="M103.72,115.36l-2.82-5.96c1.04.02,2.98-.5,4.14-.66,2.53-.35,5.46-.04,6.79-2.73l-5.63-17.72.33-.08h17.31l4.22-15.73c-1.58,16.91-11.12,32.59-24.34,42.89Z"/>
          <path class="cls-1" d="M85.34,91.35c.03.99-.02,1.99,0,2.98l-71.46-.33c-1.28-.44-5.95.13-4.72-2.4.63-1.31,6.66-1.69,8.11-2.57,0,.6.27,1.63.25,2.32h67.82Z"/>
        </g>
        <g>
          <path class="cls-5" d="M105.37,84.89c-.28-.75-1.16-1.74-1.49-2.82-1.12-3.69.68-7.92,1.49-11.76.66-3.15,2.36-7.7,1.16-10.85-.89-2.34-5.48-3.48-6.96-5.71.12-1.14-.14-4.64,0-5.05s3.6-3.22-.66-3.06c.24-4.2-.41-4.64-4.55-4.31-.57.25-.09,1.13-.08,1.32,0,.14-.29.36-.17.66l-2.32.08c.5.63,1.8.08,2.32.08,1.34,0,2.66.1,3.97.33.09.65.46,1.48-.17,1.99-.23-.12-.21-.41-.41-.5-.29-.12-6-.77-6.29-.66-1.36,3.96,1.25,10.54,6.21,6.38-.46,1.8-2.16,1.7-3.31,2.9-2.63.79-6.54,5.09-9.36,3.97-1.17-.46-.63-6.18-.41-7.29.09-.45.18-.89.33-1.32.4-1.14,1.26-2.65,2.15-3.48.46-.42,1.03-.47,1.32-.99.56-.05,1.13.06,1.66-.25.15-1.43.58-4.18,1.66-5.22.47-.46,2.43-1.14,3.06-1.16,2.13-.07,2.12.67,4.97.17.71-.13.85.63,1.41-.5.09,1.25,1.36,1.59,2.15,2.57.73.9,1.47,1.88,2.15,2.82,2.39,3.28,7.47,14.3,11.84,14.16.75-.02,1.7-.87,2.4-.58.19,1.1-2.79,3.57-2.82,3.81-.03.22,1.9,3.1,2.15,3.81,3.69,10.16-3.76,18.57-13.41,20.45Z"/>
          <path class="cls-12" d="M103.88,82.07c.33,1.08,1.21,2.07,1.49,2.82.37,1.01.4,2.43,1.16,3.31l-.33.08,5.63,17.72c-1.33,2.69-4.26,2.39-6.79,2.73,3.71-4.98,2.84-11.49,1.32-17.14-1.11-4.14-2.68-9.22-7.95-8.69l-.83-3.15c.25.04,3.04.04,3.23,0,.77-.17,1.61-1.29,2.15-1.82.31.07-.45,4.04.91,4.14Z"/>
          <path class="cls-9" d="M105.37,70.31l-.5-.41-4.55,8.53c-4.2,0-8.14-1.64-12.17-2.65-.25-.06-2.3-1.12-2.32-.41,1.69,1.23,1.97,4.03,2.32,6.04.13.72.63,2.14.66,2.48.88,8.57.1,17.73,1.16,26.66-1.81.83-3.65-.13-4.14-2.07-.85-3.38-.4-10.39-.5-14.16-.02-.99.03-1.99,0-2.98-.12-4.66.38-12.13-.5-16.39-.28-1.35-2.01-1.9-1.16-3.15.93.11,2.07.05,2.98.17.52.07,1.17.24,1.82.33,1.93.26,3.84.64,5.8.83s3.86.42,5.8.25l-1.16-.17,1.08-11.18-1.41,11.01-3.73-.08c-.31-.36-.08-.6-.08-.99,0-.81.26-3.17.5-3.89.54-1.64,4.94-5.77,4.8-7.12-.02-.21-.44-.5-.5-.58-.15-.21-.17-.51-.41-.66-.62.45.39.61.41.66.06.15.19.92.17,1.08-.05.28-3.27,4.55-3.56,4.55-.48,0-.05-.59-.41-.66.98-3.03,2.37-5.82,3.15-8.94.22-.9.56-1.7.66-2.65,1.47,2.23,6.06,3.38,6.96,5.71,1.2,3.15-.5,7.7-1.16,10.85Z"/>
          <path class="cls-9" d="M105.04,108.73c-1.16.16-3.11.68-4.14.66-.3,0-.61,0-.91,0-1.96-8.39-2.86-17.05-3.56-25.67.2-.04,1.35-.76,1.99-.83,5.27-.52,6.84,4.56,7.95,8.69,1.51,5.65,2.39,12.16-1.32,17.14Z"/>
          <path class="cls-7" d="M90.8,59.72c.08.69-1.42,5.67-1.66,6.96-.28,1.51-.54,2.93-.66,4.47-1.37.49-.68-1.95-1.99-1.99-.04-1.19.07-7.55.75-8.11.06-.05,1.31-.24,1.57-.5l-.08,5.96c.66-1.67-.11-4.16.25-5.71.16-.71.76-.74.99-1.24.44-.96-.52-1.52.25-1.99.23.59-.03,1.31.08,1.9,0,.05.49.22.5.25Z"/>
          <path class="cls-7" d="M86.66,71.97c-.91-.12-2.05-.05-2.98-.17.03-.04-.01-.23,0-.33.72-.14,1.88-1.97,2.82-2.15.04.88.27,1.75.17,2.65Z"/>
          <path class="cls-12" d="M88.48,71.14c-.03.38.02.78,0,1.16-.65-.09-1.3-.27-1.82-.33.11-.9-.13-1.77-.17-2.65,0-.06,0-.11,0-.17,1.3.04.62,2.47,1.99,1.99Z"/>
          <path class="cls-12" d="M89.97,59.55c-.23.5-.83.53-.99,1.24-.36,1.55.41,4.04-.25,5.71l.08-5.96c.05-.55.68-.94,1.16-.99Z"/>
          <path class="cls-12" d="M105.37,70.31c-.81,3.84-2.61,8.07-1.49,11.76-1.37-.1-.6-4.07-.91-4.14-.54.53-1.38,1.65-2.15,1.82-.18.04-2.98.04-3.23,0-1.71-.26-6.41-2.16-8.11-2.98-.29-.14-2.27-.85-1.32-.99,4.03,1,7.97,2.65,12.17,2.65l4.55-8.53.5.41Z"/>
          <path class="cls-1" d="M98.92,45.64c-.5.02-.86.5-.91.5-.14-.02-.06-.32-.08-.33.63-.51.25-1.33.17-1.99-.03-.19.12-.92,0-1.08-.34-.46-3.11-.24-3.81-.08,0-.19-.48-1.07.08-1.32,4.15-.33,4.79.1,4.55,4.31Z"/>
          <path class="cls-1" d="M94.11,43.32v.17c-.52,0-1.82.54-2.32-.08l2.32-.08Z"/>
          <path class="cls-6" d="M88.15,75.78c-.94.14,1.04.86,1.32.99l-.83-.08-.5,4.72c-.35-2.01-.63-4.82-2.32-6.04.02-.7,2.07.35,2.32.41Z"/>
          <path class="cls-12" d="M94.78,71.97h-.33c.05-1.19.09-3.02.33-4.14.17-.77.76-1.76.99-2.48.36.08-.07.66.41.66.29,0,3.51-4.27,3.56-4.55.03-.16-.11-.93-.17-1.08.06.08.47.37.5.58.14,1.35-4.26,5.48-4.8,7.12-.24.72-.49,3.08-.5,3.89Z"/>
          <path class="cls-12" d="M94.28,73.13c.15-.35.15-.79.17-1.16h.33c0,.4-.22.63.08.99l3.73.08,1.41-11.01-1.08,11.18,1.16.17c-1.94.17-3.87-.07-5.8-.25Z"/>
          <path class="cls-12" d="M99.58,60.38c-.02-.05-1.04-.21-.41-.66.24.16.26.45.41.66Z"/>
          <g>
            <path class="cls-10" d="M96.43,83.73c.7,8.62,1.6,17.28,3.56,25.67.3,0,.61,0,.91,0l2.82,5.96c-1.66,1.3-3.2,2.34-4.97,3.48-2.41-2.63-4.89-5.77-5.96-9.19l-1.57-22.94c.68,11.39-.72,23.29,5.38,33.45-1.55.91-3.01,1.71-4.64,2.48-.62-4.05-1.5-8.01-1.99-12.09-1.06-8.94-.28-18.09-1.16-26.66,2.53.31,5.13.29,7.62-.17Z"/>
            <path class="cls-10" d="M98.75,118.84c-.73.47-1.41.89-2.15,1.32-6.1-10.16-4.7-22.06-5.38-33.45l1.57,22.94c1.08,3.42,3.55,6.56,5.96,9.19Z"/>
            <path class="cls-13" d="M89.48,76.77c1.71.82,6.4,2.72,8.11,2.98l.83,3.15c-.64.06-1.78.79-1.99.83-2.48.45-5.08.48-7.62.17-.04-.35-.54-1.76-.66-2.48l.5-4.72.83.08Z"/>
            <path class="cls-13" d="M97.92,45.81s-.06.31.08.33c.05,0,.41-.48.91-.5,4.26-.16.8,2.65.66,3.06s.12,3.91,0,5.05c-.1.95-.44,1.75-.66,2.65-.48-.49-1.36.44-1.74.5-1.83.28-2.65-.47-3.56-1.99.12-.16.32-.81.5-.99,1.15-1.2,2.86-1.1,3.31-2.9-4.96,4.16-7.57-2.42-6.21-6.38.3-.11,6,.54,6.29.66.21.08.19.38.41.5Z"/>
            <path class="cls-7" d="M83.68,71.47c-.01.1.03.29,0,.33-.85,1.24.88,1.8,1.16,3.15-.52-.01-.83.43-1.16.66-3.16,2.26-5.77,5.79-9.44,6.96-.36.11-.82.49-.99.5-.05,0-.11,0-.17,0-.47-.07-1.78-1.47-1.9-1.49-.03,0-.21.26-.41.33.74-1.07,1.59-2.06,2.32-3.15.17-.25.26-.71.33-.83,1.33-2.02,2.98-4.09,4.47-6.13.68.26,1.36-.72,2.07-.83,1.3-.2,2.7.7,3.73.5Z"/>
            <path class="cls-11" d="M98.92,56.4c-.78,3.12-2.17,5.92-3.15,8.94-.23.72-.83,1.72-.99,2.48-1.81.83-4.59.82-5.63-1.16.24-1.28,1.73-6.27,1.66-6.96,1.03-1.58,1.7-3.26,2.82-4.8.91,1.52,1.73,2.27,3.56,1.99.38-.06,1.26-.99,1.74-.5Z"/>
            <path class="cls-13" d="M98.09,43.82c-1.32-.24-2.63-.33-3.97-.33v-.17c-.12-.3.17-.53.17-.66.7-.16,3.47-.38,3.81.08.12.16-.03.89,0,1.08Z"/>
            <path class="cls-13" d="M94.78,67.83c-.24,1.12-.28,2.95-.33,4.14-.02.37-.01.81-.17,1.16-1.96-.18-3.86-.57-5.8-.83.02-.38-.03-.78,0-1.16.12-1.54.38-2.96.66-4.47,1.04,1.98,3.82,1.99,5.63,1.16Z"/>
            <g>
              <path class="cls-13" d="M73.08,83.07c-.12.39-.41.52-.66.83-.63.76-1.27,2.33-2.07,2.65-.21.08-2.05.03-2.4,0-.4-.88-.9-1.13-.5-2.24.27-.73,2.58-2.13,3.31-2.4.2-.08.39-.34.41-.33.12.02,1.44,1.42,1.9,1.49Z"/>
              <path class="cls-7" d="M67.86,85.05c.12-.09.53.01.41.25-.13.26-.77,0-.41-.25Z"/>
            </g>
          </g>
        </g>
        <g>
          <path class="cls-4" d="M20.09,62.03l.25,26,.25-24.76c5.46-.19,10.93-.03,16.39-.08l-.33,1.82c-1.39.02-6.29-.25-7.2.17-.63.28-1.21,1.88-.41,2.32-.5,6.54.37,13.68,0,20.29.03.14.32.06.33.08.05.09-.11.18-.17.25.43.32,5.7.38,6.54.25.37-.06.48-.18.25-.5,1.04.02,2.12-.08,3.15,0,.18.01.78.67,1.32.25l-.66-.33.66-.5c-.06-4.19-.03-8.47,0-12.67.02-3-.08-6.02,0-9.03l3.15.08c-.34,1-.32,6.25-.33,7.7-.04,4.84.29,9.72.17,14.57.08.15.59.37.75.41.49.14,9.68-.04,10.18-.17.24-.06.21.05.5-.17.11,0,.22,0,.33,0,0,.24.19.14.33.17,1.59.29,5.14.03,6.96,0,1.98-.03,3.97-.17,5.96-.17.33,0,.66,0,.99,0,.64.66,2.45.17,3.31.17.06,0,.11,0,.17,0,2.84-.03,8.04.49,10.6,0,.06-.01.12.02.17,0,.12-.04.45.08.5-.08l-.66-1.24c0-.05,0-.11,0-.17.27-.32.34-1.98-.17-1.49.01-.16-.01-.33,0-.5.41.12.37-1,.17-1.32,0-.02.13.08.17-.33.05-.62.23-2.02-.33-2.48,0-.02-.46-.38,0-.5l.08.33c.13-.09.18-.19.25-.33.14-.28-.02-.17,0-.5.1-1.31.01-2.66,0-3.97.32-.23.64-.68,1.16-.66.87,4.27.38,11.74.5,16.39H17.52c.02-.69-.24-1.71-.25-2.32,0-.03.32-.32.17-.66.33-.01,2.05-.19,2.15-.41v-26.25c.2.09.29.27.5.33Z"/>
          <path class="cls-8" d="M60.33,61.54c.49.22-.31.81,1.16.17,0,.25.22.13.33.17.79.26.78,0,1.16,0h.5c.32,0,.29.18.99,0,.1.01.26-.03.33,0,.68.25.58.12,1.16,0,.18-.04.48.12.5-.17.27.11.14.47.91.33.13-.02-.02-.23.25-.33.02.28.32.12.5.17,1.18.28.74-.04,1.16-.17.12.36.42.14.33-.17.44.15-.34.66,1.16.33h.5c.61.11.38.11.99,0h.5c.61.12.38.12.99,0,.18-.04.48.11.5-.17.94.31.54,0,1.16,0h.33c.4,0,.78,0,1.16,0h.33c.06,0,.82.33,1.08.33.13,0,0-.33.25-.33h.33c.34-.02.5.09,1.16,0,.03,0,.29.51.33-.17.3.2.09.44.25.5.64.22.71-.26.91-.33.02.28.33.12.5.17.94.23.68-.16.99-.17h.5c.07,0,.67.65,1.16.17h.17c-.06.82-.37.79-.66,1.32-1.54.03-9.88-.58-10.68-.17-.31.16-.36,1.64-.08,1.99-.13,0-.18.17-.5.17l-.08-2.15c-3.45-.11-6.91.08-10.35.17-.06,0-.11,0-.17,0-.88.02-6.11-.18-6.38,0s.19,1.1-.33,1.16c-.04-.19-.05-1.04-.08-1.08-.61-.7-16.46-.1-18.55-.08-5.46.05-10.93-.11-16.39.08l-.25,24.76-.25-26c.31.09.45-.1.66-.17.31-.09.31-.17.33-.17.07,0,.37.17,1.16.17.11,0,.22,0,.33,0,.78,0,1.09-.17,1.16-.17.03,0,.03.16.5.17.34,0,.67,0,.99,0,.16,0,.33,0,.5,0,.85,0,1.81,0,2.65,0,.11,0,.22,0,.33,0,.38,0,.78,0,1.16,0,.11,0,.22,0,.33,0,.39,0,.78,0,1.16,0,.11,0,.22,0,.33,0,.87,0,1.8,0,2.65,0,.11,0,.22,0,.33,0,.77,0,1.09-.17,1.16-.17.02,0-.08.16.33.17,1.35,0,2.97,0,4.14,0,.11,0,.22,0,.33,0,.38,0,.77,0,1.16,0,.16,0,.33,0,.5,0,1.29,0,2.73,0,3.97,0,.16,0,.33,0,.5,0,.38,0,.77,0,1.16,0,.11,0,.22,0,.33,0,.85,0,1.79,0,2.65,0,.11,0,.22,0,.33,0,.38,0,.77,0,1.16,0,.11,0,.22,0,.33,0,.37,0,.77,0,1.16,0,.11,0,.22,0,.33,0,.38,0,.76,0,1.16,0,.11,0,.22,0,.33,0,.72-.01,1.09-.16,1.16-.17.03,0,.01.18.5.17.33,0,.63.02.99,0,.16,0,.33.01.5,0,.05,0,.45.25.91.17.17-.03-.06-.35.25-.5-.05.5.4.45.33,0Z"/>
          <path class="cls-6" d="M62.15,65.68h20.37c-.53.77-1.11,1.42-1.66,2.15h-7.2c-.33.11-.56,1.68-.58,2.07,0,.12.33.04.33.17s-.34.05-.33.17c.02.39.33.19.33.33.03.58-.34.39-.33.5.02.15.48.01.5.17.07.86-.32,1.88-.33,2.73-.54.48-.46-.37-.5-.75-.17-1.96.48-4.19-.08-5.71-3.49.26-7.03.22-10.52.17-2.25-.03-4.56.03-6.79,0-1.38-.02-9.87.02-10.35-.17-.15-.06-.05-.3-.08-.33,1.26-.22,9.77.29,10.18,0,.21-.15.03-1.21.25-1.49.16,0,.17-.16.33-.17.2.26,0,1.61.08,1.66.28.13,5.85.12,6.13,0,.43-.19.19-1.12.25-1.49Z"/>
          <path class="cls-12" d="M80.86,67.83c-.99,1.33-2.01,2.64-2.98,3.97-1.49,2.04-3.14,4.1-4.47,6.13l-.17-3.64c0-.11,0-.22,0-.33.01-.85.4-1.87.33-2.73-.01-.15-.48-.01-.5-.17-.01-.1.36.08.33-.5,0-.14-.31.06-.33-.33,0-.12.34-.05.33-.17s-.34-.04-.33-.17c.02-.39.25-1.96.58-2.07h7.2Z"/>
          <path class="cls-8" d="M72.92,65.18c.32,0,.36-.17.5-.17,3.12-.01,6.32.24,9.44.17-.11.17-.22.33-.33.5h-20.37c-2.12-.29-4.32-.18-6.46-.17-.16,0-.17.16-.33.17-2.48.02-8.93-.7-10.93-.17-.2.05-.34-.01-.5.25v21.86c.05.14.6.37.75.41,1.2.35,7.89.02,9.69,0v.17c-.5.12-9.69.31-10.18.17-.16-.05-.67-.27-.75-.41.12-4.85-.21-9.73-.17-14.57.01-1.45-.01-6.7.33-7.7.03-.08.44-.4.33-.66,2.86.02,9.02.71,11.51.17.13-.03,0-.67.33-.5.17.09,0,.46.17.5.41.09,5.86.15,6.13,0s.28-1.64.25-1.99c.06,0,.11,0,.17,0,.06.36-.12,1.84.08,1.99.42.3,9.02,0,10.35,0Z"/>
          <path class="cls-6" d="M84.18,63.19c-.41.76-.86,1.29-1.32,1.99-3.12.07-6.32-.18-9.44-.17-.28-.35-.23-1.83.08-1.99.8-.41,9.14.19,10.68.17Z"/>
          <path class="cls-3" d="M62.15,67.66v.33c0,.49-.13,1.26.17,1.66,0,.11,0,.22,0,.33-.23,0-.15.17-.17.33-.04.51-.11.65,0,1.16.04.18-.12.48.17.5l-.17,4.47.17.5c.01.19,0,.19,0,.33-.47-.1-.28.29,0,.5,0,.08.02.14,0,.33-.25,0-.14.2-.17.33-.14.64.14.09.17.5,0,.02,0,.42,0,.5-.03,1.24-.28,2.37-.17,3.64.01.15-.17.17-.17.33,0,.3.09.7.17.99,0,.16.01.33,0,.5-.01.19,0,.23,0,.33-.03.55-.35,1.34.17,1.49,0,.1,0,.25,0,.33-.4.26-.19.82-.75.99-.73.23-4.73-.02-5.88,0-.16,0-.33,0-.5,0-.11,0-.22,0-.33,0,.1-.07.21-.53.33-.66.25.19.43.16.5-.17.02-.11.02-.39,0-.5-.06-.24-.25-.38-.5-.33-.02-.08,0-.23,0-.33.2.02.26.06.33-.17.04-.12-.03-.34,0-.5,0-.05,0-.11,0-.17,0-.1,0-.37,0-.5v-.33c0-.07,0-.31,0-.33,0-.11-.01-.22,0-.33.13-1.18-.15-.91-.17-1.16v-.33c.03-.85,1.05-1.19,0-2.15.45-.17,0-.32,0-.33-.41-.84-.16-.4,0-.99.05-.2.35-.32-.17-.5,0-.05,0-.11,0-.17.39.05.29-.06.33-.33.04-.25-.3-.82-.33-.99.39.05.29-.06.33-.33.01-.1.02-.23,0-.33-.03-.15-.17-.32-.33-.33-.02-.05.01-.11,0-.17l.33-.41-.33.25c.04-.95.31-.31.33-.66v-.33c-.63-.72-.03-1.31,0-1.82.01-.22-.02-.45,0-.66,0-.05,0-.11,0-.17v-.33c.02-.28.09-.07,0-.5-.03-.13.08-.34-.17-.33,0-.1-.02-.25,0-.33.54.02.16-.06.17-.17.05-.62-.28-.28-.33-.58-.07-.39.16-1.44.17-1.9,2.23.03,4.54-.03,6.79,0Z"/>
          <path class="cls-12" d="M36.65,65.51c-.11.2-.14.25-.17.5,0,.05,0,.11,0,.17-1.37-.02-7.9-1.1-6.54,1.49l6.38-.17c0,.05,0,.11,0,.17-.74,6.63-1.54,13.25-2.32,19.87v.17c-1.51,0-3.11.26-4.64.17-.01-.02-.3.06-.33-.08.37-6.6-.5-13.75,0-20.29.07-.88-.29-1.88.91-2.15,1.69-.38,4.89.12,6.71.17Z"/>
          <path class="cls-6" d="M83.68,79.59c-.02.32.14.22,0,.5h-.33c-.46.11,0,.47,0,.5,0,.66-.46,2.32.33,2.48-.04.42-.16.31-.17.33-.03.42-.13.89-.17,1.32-.01.16.01.33,0,.5-.03.39.19,1.27.17,1.49,0,.05,0,.11,0,.17-.04.24-.21,1.07-.41,1.16h-9.77l-.08-4.97c.17,0,.64-.38.99-.5.21.45.1.43.58.5,1.71.22,6.61-3.64,8.28-4.64l.58,1.16Z"/>
          <path class="cls-12" d="M62.32,63.19c.03.35,0,1.85-.25,1.99s-5.71.09-6.13,0c-.16-.04,0-.41-.17-.5-.32-.17-.2.47-.33.5-2.48.54-8.65-.15-11.51-.17-2.42-.02-4.86-.03-7.29,0l.33-1.82c2.09-.02,17.94-.62,18.55.08.04.04.04.88.08,1.08.52-.06.07-.98.33-1.16s5.5.02,6.38,0Z"/>
          <path class="cls-12" d="M39.3,74.95c0,4.28,0,8.62-.17,12.92-1.03-.08-2.11.02-3.15,0-.63-.01-1.39-.16-1.99-.17v-.17c.73-.12,2.03.35,2.32-.41.09-6.44,1.7-13.07,1.82-19.46,0-.23.41-1.26.08-1.49-.12-.08-1.37.1-1.74-.17.02-.25.05-.3.17-.5.66.02,1.39-.01,2.07,0,.12,0,.04.33.17.33.07,0,.66-.83,1.24-.41-.54.35-1.73.9-.83,1.16-.06,2.79,0,5.59,0,8.36Z"/>
          <path class="cls-6" d="M43.93,65.02c.11.26-.3.59-.33.66l-3.15-.08c-.08,3,.02,6.03,0,9.03l-1.16.33c0-2.78-.06-5.58,0-8.36-.9-.26.29-.81.83-1.16-.58-.42-1.17.41-1.24.41-.12,0-.04-.33-.17-.33-.68-.01-1.41.02-2.07,0-1.82-.04-5.02-.55-6.71-.17-1.2.27-.84,1.27-.91,2.15-.8-.44-.22-2.04.41-2.32.92-.41,5.82-.15,7.2-.17,2.42-.03,4.86-.02,7.29,0Z"/>
          <path class="cls-8" d="M83.68,79.59l-.58-1.16c-1.67,1-6.57,4.86-8.28,4.64-.48-.06-.37-.05-.58-.5,3.67-1.16,6.28-4.7,9.44-6.96.01,1.31.1,2.67,0,3.97Z"/>
          <path class="cls-8" d="M40.46,74.62c-.03,4.19-.06,8.48,0,12.67l-.66.5.66.33c-.54.42-1.14-.23-1.32-.25.16-4.3.16-8.63.17-12.92l1.16-.33Z"/>
          <path class="cls-6" d="M72.75,87.87l-.17.17c-.6-.15-2.38,0-3.15,0-.33,0-.66,0-.99,0-.03-.4-.33-1.13-.5-1.49.36.03,2.19.08,2.4,0,.8-.32,1.44-1.89,2.07-2.65l.33,3.97Z"/>
          <path class="cls-8" d="M83.51,86.87l.66,1.24c-.04.16-.37.04-.5.08.13-.54-.5-.21-.17,0-2.56.49-7.76-.03-10.6,0l-.17-.33-.33-3.97c.25-.31.54-.43.66-.83.05,0,.11,0,.17,0l.08,4.97h9.77c.2-.09.37-.92.41-1.16Z"/>
          <path class="cls-8" d="M34,87.7c.59,0,1.36.15,1.99.17.23.31.12.44-.25.5-.84.13-6.11.08-6.54-.25.05-.06.21-.16.17-.25,1.52.09,3.13-.17,4.64-.17Z"/>
          <path class="cls-8" d="M62.48,88.2c-1.82.03-5.37.29-6.96,0l.17-.17c1.15-.02,5.15.23,5.88,0,.56-.18.35-.74.75-.99.01.4-.09.8.17,1.16Z"/>
          <path class="cls-8" d="M72.58,88.03s-.03.2.17.17c-.86,0-2.67.5-3.31-.17.77,0,2.55-.15,3.15,0Z"/>
          <path class="cls-8" d="M83.68,83.07c-.79-.17-.33-1.82-.33-2.48.56.47.39,1.86.33,2.48Z"/>
          <path class="cls-1" d="M83.51,86.71c.02-.22-.2-1.1-.17-1.49.5-.49.44,1.17.17,1.49Z"/>
          <path class="cls-1" d="M83.35,84.72c.04-.44.13-.9.17-1.32.21.33.25,1.45-.17,1.32Z"/>
          <path class="cls-10" d="M55.69,88.03l-.17.17c-.14-.03-.34.08-.33-.17.17,0,.34,0,.5,0Z"/>
          <path class="cls-1" d="M83.68,80.09c-.07.14-.12.24-.25.33l-.08-.33h.33Z"/>
          <path class="cls-1" d="M72.92,88.2c-.06,0-.11,0-.17,0-.19.03-.15-.16-.17-.17l.17-.17.17.33Z"/>
          <path class="cls-1" d="M83.68,88.2s-.11-.01-.17,0c-.33-.21.29-.54.17,0Z"/>
          <g>
            <path class="cls-9" d="M66.46,34.21c.11.78-.3,1.85.33,2.32-1.04,0-2.93.33-4.31.33-.85,0-1.73,0-2.24,0s-.61-.33-.66-.33c-3.27,0-6.43.16-10.02.17-7.27,0-14.34.1-21.36.25.09.41.18.82.17,1.24-.02.82-.26,6.5,0,6.71,1.93.17,3.87.05,5.8.08,0,.05,0,.11,0,.17.02.13-.01.28,0,.41.11.2.2-.14.33-.08.41.19.31,0,.33,0,.4.06.4-.02.66,0s.31,0,.33,0c.29.01.57,0,.83,0,.2,0,.3,0,.5,0,.34,0,.55.02.99,0,.11,0,.22,0,.33,0,.05,0,.84.18.99.17.29-.03.32-.12.5-.17.18.46.63,0,.66,0,.1,0,.21,0,.33,0,.19,0,.46,0,.66,0,.26,0,.34.02.66,0,.05,0,.55.23.99.17.4-.06.31-.16.33-.17.41.38.63,0,.83,0,.03,0,.11,0,.17,0,.15,0,.34,0,.5,0,.04,0,.14,0,.17,0,.1,0,.31,0,.33,0,.17,0,.47,0,.5,0,.02,0,.15.44.33,0,.13.05.2.14.33.17.15.03,1.36-.17,1.49-.17.2.01.3,0,.33,0,.27.01.48,0,.66,0,.13,0,.22,0,.33,0,.18,0,.34,0,.5,0,.11,0,.23,0,.33,0,.28,0,.56,0,.83,0,.12,0,.22,0,.33,0,.04,0,.45.16.83.17.16,0,.33,0,.5,0,.27,0,.55,0,.83,0,.42,0,.63-.17.66-.17.28,0,.84.16,1.32.17.11,0,.22,0,.33,0,10.27.13,20.53.22,30.8.17-.89.83-1.76,2.33-2.15,3.48-.37-.17-.51-.02-.83,0,.01-.22-.38-.21-.5-.17-.27.1-.12.33-.25.33-.05,0-.75-.3-.91-.33s-.5-.07-.5.17c-.45.05-.51.14-.99,0-.02,0-.35-.45-.5,0-.02,0-.3.01-.5,0,0-.2-.19-.2-.33-.17-.44.11-.04.28-.83.17,0-.22-.36-.21-.5-.17-.17.05-.3.36-.75.33-.13,0,.02-.23-.25-.33-.11-.04-.51-.06-.5.17-.32,0-.67,0-.99,0h-.33c-.65-.03-.21.15-.99-.17-.11-.04-.51-.06-.5.17-.46.08-.87.34-1.41.33-.07,0-1.18-.49-1.24-.5h-.33c-.18,0-.88.17-1.32.17h-.33c-.38,0-.78.01-1.16,0-.03,0-.29-.5-.33.17-.65-.13-.72-.12-1.16-.33-.11-.05-.35-.03-.33.17-.28.11-.03.38-.58.33-.21-.02-.41-.41-.58-.5-.11-.05-.35-.03-.33.17-.82.17-.83.02-1.49,0-.16,0-.31,0-.33,0-.78-.05-.4.08-1.16-.17-.13-.04-.51-.06-.5.17-.48.02-.73.1-1.16.17-.03-.66-.3-.17-.33-.17-.6.1-.6.06-1.16,0,.02-.19-.22-.22-.33-.17-.26.13-.12.31-.25.33-.04,0-.6-.16-.75-.17,0-.22-.36-.21-.5-.17-.33.1-.32.26-.99.33.06-.53-.6-.45-.5,0-.27,0-.55.01-.83,0-.02-.65-.3-.17-.33-.17-.26.06-.32.18-.75.17-.11,0,0-.2-.25-.33-.1-.05-.35-.03-.33.17-.7.14-.49.12-1.16,0,.02-.19-.22-.22-.33-.17-.14.07-.41.5-.58.5-.05,0-.2-.27-.41-.33-.15-.04-.51-.49-.5.17-.23-.02-.67-.17-.83-.17-.13,0-.4,0-.5,0-.35-.01.08.37-.99,0-.05-.02-.34-.47-.33.17-.49.02-.71-.14-.99-.17-.15.01-.17-.16-.33-.17-.14,0-.52.27-1.16.33-.14-.4-.36-.4-.5,0-.28.01-.38.02-.66,0-.22-.56-.38-.23-.66-.17s-.12.33-.25.33c-.03,0-.4-.29-.58-.33-.25-.06-.31-.31-.5.17-.35-.02-.52-.12-.83-.17-.25-.04-.44-.41-.66.17-.25-.01-.62-.15-.83-.17h-.5c-.19-.01-.55.02-.83,0-.2-.02-.3-.35-.5.17-.79-.1-1.54,0-2.32,0,.05-.5-.4-.45-.33,0-.18,0-.75-.16-.99-.17h-.5c-.27,0-.55,0-.83,0h-.5c-.28-.01-.54,0-.83,0-.16,0-.52-.26-.66.17-.22,0-.44,0-.66,0-.06-.34-.32-.19-.5-.17-.56.08-.55.02-.99,0,.01-.22-.39-.21-.5-.17-1.27.51-.62-.02-.99,0-.16,0-.33-.01-.5,0s-.03.16-.83.17c-.19-.34-.79-.23-.66.17-.97,0-.56-.32-.83-.33-.16,0-.33.01-.5,0-.04,0-.44.14-.83.17.01-.22-.38-.21-.5-.17-.27.1-.11.3-.25.33-.04,0-.61-.17-.75-.17h-.5c-.37,0-2.73-.11-2.82-.25-.55-.93.53-1.82.66-2.15.4-1.02-.55-1.05.83-1.41.21.35.66.22.33-.17,1.55-.02,3.34.24,5.13.17h.66c.53-.03.76.24,1.66,0,.01,0,.01.27.25.17.16-.07.05-.3.08-.33.02-.02.13-.26.17-.33,0-.02.3.06.33-.08.28-1.15-.03-6.09-.17-7.54-.05-.5-1.05-2.63-.25-2.98,10.65-.05,21.31.07,31.96,0,.89,0,2.01-.33,2.9-.33,1.35,0,2.77.18,4.14.17Z"/>
            <g>
              <path class="cls-1" d="M25.39,49.28c-.11,0-.29.16-.66.17-.13-.4.48-.5.66-.17Z"/>
              <path class="cls-14" d="M25.39,45.47h-.66c.23,0,.48,0,.66,0Z"/>
              <path class="cls-1" d="M40.62,49.28c-.04.26-.46.17-.66.17.23-.58.41-.21.66-.17Z"/>
              <path class="cls-1" d="M43.44,49.45c-.21-.01-.62.11-.66-.17.28-.06.44-.39.66.17Z"/>
              <path class="cls-1" d="M55.69,49.45c-.16.02-.33,0-.5,0-.11-.45.55-.53.5,0Z"/>
              <path class="cls-1" d="M50.23,49.28c0,.24-.31.18-.5.17-.01-.65.34-.21.5-.17Z"/>
              <path class="cls-1" d="M80.7,49.28c-.17.45-.47,0-.5,0,.15-.45.47,0,.5,0Z"/>
              <path class="cls-10" d="M48.9,49.28h-.5c.1,0,.37,0,.5,0Z"/>
              <path class="cls-10" d="M77.06,49.12c.02.64-.31.17-.5.17-.01-.22.38-.21.5-.17Z"/>
              <path class="cls-1" d="M21.08,49.28c-.19,0-.3,0-.5,0h.5Z"/>
              <path class="cls-14" d="M31.02,49.28c-.04.27-.45.16-.66.17.14-.42.5-.17.66-.17Z"/>
              <path class="cls-1" d="M39.13,49.28s-.21.02-.5,0h.5Z"/>
              <path class="cls-10" d="M61.65,49.12c-.19.53-.33.16-.5.17,0-.22.37-.21.5-.17Z"/>
              <path class="cls-1" d="M41.95,49.28c0,.24-.31.18-.5.17.19-.47.24-.23.5-.17Z"/>
              <path class="cls-10" d="M47.41,49.28c0,.23-.17.16-.33.17-.01-.64.28-.18.33-.17Z"/>
              <path class="cls-10" d="M44.6,49.45c-.16.01-.33,0-.5,0,.14-.4.36-.4.5,0Z"/>
              <path class="cls-10" d="M60,49.45c-.16.03-.34.04-.33-.17.03,0,.3-.49.33.17Z"/>
              <path class="cls-10" d="M46.09,49.28s-.08.29-.41.17l.08-.33c.16,0,.18.18.33.17Z"/>
              <path class="cls-10" d="M79.71,49.28s-.29.5-.33-.17c.15-.04.34-.04.33.17Z"/>
              <path class="cls-10" d="M82.19,49.12c-.19.53-.35.15-.5.17,0-.23.33-.19.5-.17Z"/>
              <path class="cls-1" d="M37.81,49.28c0,.24-.32.19-.5.17.19-.51.3-.18.5-.17Z"/>
              <path class="cls-1" d="M34.99,49.45c-.11,0-.22,0-.33,0-.07-.45.38-.5.33,0Z"/>
              <path class="cls-1" d="M33.67,49.28c-.15,0-.32,0-.5,0h.5Z"/>
              <path class="cls-14" d="M32.34,49.28c-.16,0-.3,0-.5,0h.5Z"/>
              <path class="cls-10" d="M57.18,49.28c-.16-.01-.31.37-.5-.17.14-.04.5-.06.5.17Z"/>
              <path class="cls-14" d="M29.69,49.45c-.19,0-.48.09-.5-.17.18-.03.44-.17.5.17Z"/>
              <path class="cls-1" d="M28.2,49.28c-.17,0-.31.36-.5-.17.11-.04.51-.06.5.17Z"/>
              <path class="cls-1" d="M26.71,49.12c-.14.4-.36.4-.5,0,.16-.01.33,0,.5,0Z"/>
              <path class="cls-1" d="M23.9,49.12c-.14.4-.36.4-.5,0,.16.01.33,0,.5,0Z"/>
              <path class="cls-10" d="M22.57,49.28c-.2.01-.3.35-.5-.17.12-.04.51-.06.5.17Z"/>
              <path class="cls-10" d="M54.37,49.45c-.16,0-.34.06-.33-.17.03,0,.31-.49.33.17Z"/>
              <path class="cls-10" d="M74.24,49.12c-.18.54-.36.14-.5.17-.01-.22.39-.21.5-.17Z"/>
              <path class="cls-14" d="M27.37,45.31s.07.26-.08.33c-.23.11-.23-.17-.25-.17l.33-.17Z"/>
              <path class="cls-1" d="M19.26,45.47c.17-.04.2-.16.33-.17.33.39-.12.51-.33.17Z"/>
              <path class="cls-10" d="M66.46,49.12c-.05.68-.3.15-.33.17-.02-.19.22-.22.33-.17Z"/>
              <path class="cls-10" d="M75.57,49.28c-.11,0-.18,0-.33,0h.33Z"/>
              <path class="cls-10" d="M67.95,49.28c0,.21-.18.2-.33.17.04-.67.3-.17.33-.17Z"/>
              <path class="cls-10" d="M71.09,49.12s.14.34-.25.33c-.14,0-.07-.33-.08-.33h.33Z"/>
              <path class="cls-10" d="M83.85,49.28c-.2.01-.3.35-.5-.17.12-.04.51-.06.5.17Z"/>
              <path class="cls-10" d="M51.55,49.28s-.21.32-.33-.17c.11-.05.35-.03.33.17Z"/>
              <path class="cls-10" d="M69.44,49.28c-.1,0-.22,0-.33,0h.33Z"/>
              <path class="cls-10" d="M53.04,49.12c-.13.49-.31.16-.33.17-.02-.19.23-.22.33-.17Z"/>
              <path class="cls-10" d="M64.97,49.12c-.13.49-.31.16-.33.17-.02-.19.23-.22.33-.17Z"/>
              <path class="cls-10" d="M63.14,49.28h-.33s.17,0,.33,0Z"/>
              <path class="cls-10" d="M58.51,49.28s-.2.32-.33-.17c.11-.05.35-.03.33.17Z"/>
              <path class="cls-10" d="M78.55,49.28c-.19-.03-.48.11-.5-.17.14-.04.5-.06.5.17Z"/>
              <path class="cls-10" d="M72.34,49.12c.45-.1.64.29.17.33-.02,0-.34-.25-.17-.33Z"/>
              <g>
                <path class="cls-8" d="M30.27,45.14l.91.08c.78.22-1.06.82-.91-.08Z"/>
                <path class="cls-8" d="M39.46,45.64c-.16.02-.94-.17-.99-.17.43-.26,1.21-.48.99.17Z"/>
                <path class="cls-8" d="M38.14,45.47c-.44.02-.65,0-.99,0h.99Z"/>
                <path class="cls-8" d="M33.25,45.14s.38.24.58.25c-.57.59-1.51-.2-.58-.25Z"/>
                <path class="cls-8" d="M31.6,45.31l.75.25c-.24.3-1.02-.11-.75-.25Z"/>
                <path class="cls-8" d="M40.62,45.47s-.48.46-.66,0c.25-.07.75-.6.66,0Z"/>
                <path class="cls-8" d="M36.65,45.47c-.26,0-.54.01-.83,0h.83Z"/>
                <path class="cls-8" d="M29.11,45.31c.06-.04.67-.09.58.25-.28.25-.95.01-.58-.25Z"/>
                <path class="cls-8" d="M35.49,45.47c-.26-.02-.27.06-.66,0h.66Z"/>
                <path class="cls-8" d="M34.5,45.47c-.13-.06-.22.28-.33.08-.01-.14.02-.28,0-.41l.33.33Z"/>
              </g>
              <path class="cls-1" d="M27.79,45.14c.21.3.06.68-.17.33-.12-.18.06-.2.17-.33Z"/>
            </g>
          </g>
          <path class="cls-6" d="M72.92,65.18c-1.33,0-9.93.3-10.35,0-.2-.15-.02-1.63-.08-1.99,3.44-.09,6.9-.28,10.35-.17l.08,2.15Z"/>
          <path class="cls-12" d="M55.36,65.68c-.21.28-.04,1.34-.25,1.49-.42.29-8.93-.22-10.18,0-.35-.36-.58-1.28-.5-1.66,2-.53,8.45.18,10.93.17Z"/>
          <path class="cls-6" d="M62.15,65.68c-.06.37.18,1.3-.25,1.49-.28.12-5.85.13-6.13,0-.09-.04.12-1.4-.08-1.66,2.14-.01,4.34-.13,6.46.17Z"/>
          <g>
            <path class="cls-9" d="M84.34,50.61c-.22,1.11-.75,6.83.41,7.29,2.82,1.11,6.73-3.18,9.36-3.97-.18.19-.38.83-.5.99-1.12,1.55-1.78,3.22-2.82,4.8,0-.03-.49-.2-.5-.25-.11-.59.15-1.31-.08-1.9-.77.47.19,1.03-.25,1.99-.48.05-1.11.45-1.16.99-.27.26-1.51.44-1.57.5-.68.57-.79,6.93-.75,8.11,0,.06,0,.11,0,.17-.93.18-2.09,2.01-2.82,2.15-1.02.2-2.43-.69-3.73-.5-.71.11-1.39,1.09-2.07.83.97-1.33,2-2.65,2.98-3.97.55-.73,1.13-1.38,1.66-2.15.12-.17.22-.33.33-.5.47-.7.91-1.23,1.32-1.99.29-.53.6-.51.66-1.32,0-.02.33-.05-.08-.33l-.08.33c-.49.49-1.09-.17-1.16-.17-.14,0-.34,0-.5,0-.31,0-.05.4-.99.17-.18-.44-.22-.26-.5-.17-.2.07-.27.55-.91.33-.16-.05.05-.29-.25-.5-.08-.05-.36-.03-.33.17-.66.09-.82-.02-1.16,0-.08,0-.24,0-.33,0-.25,0-.12.33-.25.33-.25,0-1.02-.33-1.08-.33-.11,0-.23,0-.33,0-.38,0-.76,0-1.16,0-.13,0-.21,0-.33,0-.62,0-.22.31-1.16,0-.25-.08-.31-.32-.5.17-.62.12-.39.12-.99,0-.02,0,.07-.26-.08-.33-.25-.12-.39.33-.41.33-.61.11-.39.11-.99,0-.02,0-.13-.33-.25-.33-.39,0-.23.33-.25.33-1.5.33-.72-.19-1.16-.33-.33-.11-.31.16-.33.17-.42.13.02.45-1.16.17-.18-.44-.22-.27-.5-.17s-.11.31-.25.33c-.77.14-.65-.22-.91-.33-.29-.12-.31-.28-.5.17-.58.12-.48.25-1.16,0l.08-.33c-.23-.12-.39.32-.41.33-.7.18-.67,0-.99,0-.02,0-.12-.33-.25-.33-.11,0-.23.33-.25.33-.38,0-.37.26-1.16,0,0-.6-.2-.22-.33-.17-1.47.65-.67.06-1.16-.17-.04-.02-.3-.02-.33,0-.31.14-.08.47-.25.5-.46.09-.86-.17-.91-.17-.14-.4-.36-.4-.5,0-.37.02-.66,0-.99,0l-.5-.17c-.07,0-.44.15-1.16.17.07-.45-.38-.5-.33,0-.4,0-.78,0-1.16,0,.07-.45-.38-.5-.33,0-.39,0-.79,0-1.16,0,.07-.45-.38-.5-.33,0-.39,0-.78,0-1.16,0,.07-.45-.38-.5-.33,0-.86,0-1.8,0-2.65,0-.14-.36-.38-.47-.33,0-.38,0-.78,0-1.16,0-.14-.4-.36-.4-.5,0-1.25,0-2.68,0-3.97,0-.14-.4-.36-.4-.5,0-.38,0-.78,0-1.16,0,.05-.47-.19-.36-.33,0-1.17,0-2.79,0-4.14,0,.02-.43-.04-.33-.33-.17-.07,0-.39.17-1.16.17.07-.45-.38-.5-.33,0-.85,0-1.78,0-2.65,0,.05-.47-.19-.36-.33,0-.38,0-.77,0-1.16,0,.07-.45-.38-.5-.33,0-.38,0-.78,0-1.16,0-.14-.36-.38-.47-.33,0-.84,0-1.8,0-2.65,0-.14-.4-.36-.4-.5,0-.33,0-.65,0-.99,0l-.5-.17c-.07,0-.38.17-1.16.17.05-.47-.19-.36-.33,0-.79,0-1.09-.16-1.16-.17-.12-.36-.42-.14-.33.17-.21.06-.35.26-.66.17-.2-.07-.3-.24-.5-.33-.58-.27-1.64,0-1.82-.41-.21-.47.16-2.62,0-3.31.07-.17,2.3-.22,2.65-.25,0,.25.31.18.5.17.13,0,.51-.12.66-.17.9.54.48-.11.5-.17.57-1.96-.44-6.03,1.57-6.46,18.46.21,36.87-.5,55.31-.83,1.67-.03,3.9-.23,5.38.33Z"/>
            <g>
              <path class="cls-1" d="M20.92,57.89c-.18,0-.49.08-.5-.17.04,0,.5-.52.5.17Z"/>
              <path class="cls-1" d="M22.07,57.56c-.02.06.4.7-.5.17.18-.06.26-.23.5-.17Z"/>
              <path class="cls-6" d="M28.95,55.24c.24-.08,4.8-.08,5.13,0,.2.04.73.04.41.41-.18.21-5.28.17-5.55.08s-.27-.41,0-.5Z"/>
              <path class="cls-6" d="M38.06,52.1c.35.03.85.19.66.66l-5.22-.25c0-.23,4.3-.44,4.55-.41Z"/>
              <path class="cls-6" d="M28.95,53.75c.17-.09,3.89-.08,3.89.25-.15.49-4.98.34-3.89-.25Z"/>
              <path class="cls-6" d="M28.95,52.26c.27-.09,3.89-.06,3.89.25-.17.6-5.23.19-3.89-.25Z"/>
              <path class="cls-6" d="M33.75,53.75c.13-.07,2.9-.09,2.9.25-.15.51-3.9.29-2.9-.25Z"/>
              <path class="cls-6" d="M68.03,55.74s.39.31.66.17c1.03.6-1.89.66-1.9.25,0-.24,1.18-.42,1.24-.41Z"/>
              <path class="cls-8" d="M69.85,55.91l2.4.25c-.49,0-2.34.42-2.4-.25Z"/>
              <path class="cls-12" d="M62.73,55.91c.32-.1,2.05-.09,2.4.25l-2.57.08c-.16-.08.12-.31.17-.33Z"/>
              <path class="cls-8" d="M62.07,57.56c.06-.04.67-.09.58.25-.28.25-.95.01-.58-.25Z"/>
              <path class="cls-6" d="M48.16,57.56c.27-.07.42.05.58.25l-.75.08c-.16-.08.12-.32.17-.33Z"/>
              <path class="cls-6" d="M41.2,57.56c.06-.04.67-.09.58.25-.28.25-.95.01-.58-.25Z"/>
              <path class="cls-14" d="M26.96,57.56c.27-.07.42.05.58.25l-.75.08c-.16-.08.12-.32.17-.33Z"/>
              <path class="cls-6" d="M46.67,57.56c.16-.11.47.07.58.25-.29.25-.95,0-.58-.25Z"/>
              <path class="cls-6" d="M44.02,57.56c.22-.04.46-.05.41.25-.49.34-.88-.16-.41-.25Z"/>
              <path class="cls-6" d="M53.79,57.56c.16-.11.47.07.58.25-.29.25-.95,0-.58-.25Z"/>
              <path class="cls-6" d="M42.69,57.56c.22-.04.46-.05.41.25-.49.34-.88-.16-.41-.25Z"/>
              <path class="cls-6" d="M38.55,57.56c.22-.04.46-.05.41.25-.49.34-.88-.16-.41-.25Z"/>
              <path class="cls-6" d="M31.27,57.56c.16-.11.47.07.58.25-.29.25-.95,0-.58-.25Z"/>
              <path class="cls-8" d="M60.91,57.56c.22-.04.46-.05.41.25-.49.34-.88-.16-.41-.25Z"/>
              <path class="cls-14" d="M66.21,57.56c.13-.07.73-.02.58.25-.16.29-.83-.11-.58-.25Z"/>
              <path class="cls-14" d="M73.33,57.56c.13-.07.73-.02.58.25-.16.29-.83-.11-.58-.25Z"/>
              <path class="cls-1" d="M76.31,57.56c.06-.04.48-.03.58.08-.28.49-.96.16-.58-.08Z"/>
              <path class="cls-1" d="M79.13,57.56c.12-.09.53.01.41.25-.13.26-.77,0-.41-.25Z"/>
              <path class="cls-1" d="M77.8,57.56c.12-.09.53.01.41.25-.13.26-.77,0-.41-.25Z"/>
              <path class="cls-14" d="M69.19,57.56c.12-.09.53.01.41.25-.13.26-.77,0-.41-.25Z"/>
              <path class="cls-14" d="M65.05,57.56c.69-.22.26.54-.17.33-.16-.08.11-.31.17-.33Z"/>
              <path class="cls-14" d="M25.47,57.56c.58-.07.4.63-.17.33-.16-.09.13-.33.17-.33Z"/>
              <path class="cls-6" d="M29.94,57.56c.58-.07.4.63-.17.33-.16-.09.13-.33.17-.33Z"/>
              <path class="cls-6" d="M32.92,57.56c.58-.07.4.63-.17.33-.16-.09.13-.33.17-.33Z"/>
              <path class="cls-12" d="M34.41,57.56c.58-.07.4.63-.17.33-.16-.09.13-.33.17-.33Z"/>
              <path class="cls-8" d="M58.09,57.56c.58-.07.4.63-.17.33-.16-.09.13-.33.17-.33Z"/>
              <path class="cls-6" d="M55.28,57.56c.58-.07.4.63-.17.33-.16-.09.13-.33.17-.33Z"/>
              <path class="cls-6" d="M49.65,57.56c.58-.07.4.63-.17.33-.16-.09.13-.33.17-.33Z"/>
              <path class="cls-8" d="M52.46,57.56c.58-.07.4.63-.17.33-.16-.09.13-.33.17-.33Z"/>
              <path class="cls-10" d="M72.75,61.87h-.5s.16-.45.41-.33c.15.07.07.33.08.33Z"/>
              <path class="cls-1" d="M28.45,57.56c.14-.08.42.23.41.25-.13.28-.78-.02-.41-.25Z"/>
              <path class="cls-10" d="M74.24,61.7c-.02.28-.32.13-.5.17.19-.48.25-.25.5-.17Z"/>
              <path class="cls-1" d="M80.62,57.56c.06-.04.36-.03.41.08.13.27-.95.28-.41-.08Z"/>
              <path class="cls-10" d="M71.26,61.87h-.5s-.14-.33.25-.33c.12,0,.23.33.25.33Z"/>
              <path class="cls-10" d="M66.46,61.7c-.02.28-.32.13-.5.17.19-.45.21-.28.5-.17Z"/>
              <path class="cls-10" d="M64.8,61.87c-.07-.03-.23.01-.33,0,.03,0,.18-.45.41-.33l-.08.33Z"/>
              <path class="cls-10" d="M21.08,61.7s-.02.07-.33.17c-.09-.3.21-.53.33-.17Z"/>
              <path class="cls-10" d="M24.23,61.87c-.47,0-.47-.16-.5-.17l.5.17Z"/>
              <path class="cls-10" d="M25.72,61.87c-.16,0-.33,0-.5,0,.14-.4.36-.4.5,0Z"/>
              <path class="cls-10" d="M26.96,61.54s.33.24.17.33c-.43.23-.48-.3-.17-.33Z"/>
              <path class="cls-10" d="M30.19,61.87c-.11,0-.22,0-.33,0-.05-.5.4-.45.33,0Z"/>
              <path class="cls-10" d="M34.66,61.87c-.11,0-.22,0-.33,0-.05-.5.4-.45.33,0Z"/>
              <path class="cls-14" d="M63.72,57.56s.33.24.17.33c-.43.23-.48-.3-.17-.33Z"/>
              <path class="cls-10" d="M37.56,61.54s.33.24.17.33c-.43.23-.48-.3-.17-.33Z"/>
              <path class="cls-10" d="M39.05,61.54s.33.24.17.33c-.43.23-.48-.3-.17-.33Z"/>
              <path class="cls-10" d="M42.28,61.87c-.16,0-.33,0-.5,0,.14-.4.36-.4.5,0Z"/>
              <path class="cls-10" d="M43.52,61.54s.33.24.17.33c-.43.23-.48-.3-.17-.33Z"/>
              <path class="cls-10" d="M45.01,61.54s.33.24.17.33c-.43.23-.48-.3-.17-.33Z"/>
              <path class="cls-10" d="M46.75,61.87c-.16,0-.33,0-.5,0,.14-.4.36-.4.5,0Z"/>
              <path class="cls-1" d="M24.31,57.56s.33.24.17.33c-.43.23-.48-.3-.17-.33Z"/>
              <path class="cls-10" d="M49.48,61.54c.25-.09.36.24.17.33-.24.11-.37-.26-.17-.33Z"/>
              <path class="cls-10" d="M51.22,61.87c-.11,0-.22,0-.33,0-.05-.5.4-.45.33,0Z"/>
              <path class="cls-10" d="M52.71,61.87c-.11,0-.22,0-.33,0-.05-.5.4-.45.33,0Z"/>
              <path class="cls-10" d="M54.2,61.87c-.11,0-.22,0-.33,0-.05-.5.4-.45.33,0Z"/>
              <path class="cls-10" d="M55.69,61.87c-.11,0-.22,0-.33,0-.05-.5.4-.45.33,0Z"/>
              <path class="cls-10" d="M57.35,61.87c-.48.01-.47-.17-.5-.17l.5.17Z"/>
              <path class="cls-10" d="M58.84,61.87c-.16.01-.33,0-.5,0,.14-.4.36-.4.5,0Z"/>
              <path class="cls-10" d="M60.33,61.54c.07.45-.38.5-.33,0,.04-.02.29-.02.33,0Z"/>
              <path class="cls-10" d="M61.82,61.87c-.11-.04-.34.09-.33-.17.13-.06.34-.44.33.17Z"/>
              <path class="cls-10" d="M63.48,61.87h-.5s.13-.34.25-.33c.12,0,.23.33.25.33Z"/>
              <path class="cls-1" d="M83.27,57.56c.43-.23.48.3.17.33-.02,0-.33-.24-.17-.33Z"/>
              <path class="cls-10" d="M68.11,61.87c-.17-.04-.48.12-.5-.17.28-.1.32-.27.5.17Z"/>
              <path class="cls-10" d="M69.6,61.54c.09.3-.21.53-.33.17.02,0,0-.28.33-.17Z"/>
              <path class="cls-1" d="M81.94,57.56c.43-.23.48.3.17.33-.02,0-.33-.24-.17-.33Z"/>
              <path class="cls-10" d="M75.73,61.7h-.33c.12,0,.2,0,.33,0Z"/>
              <path class="cls-10" d="M77.22,61.7h-.33c.1,0,.22,0,.33,0Z"/>
              <path class="cls-10" d="M80.37,61.54c-.04.67-.3.16-.33.17-.03-.19.25-.22.33-.17Z"/>
              <path class="cls-10" d="M82.02,61.87c-.17-.04-.48.12-.5-.17.28-.1.32-.27.5.17Z"/>
              <path class="cls-10" d="M83.51,61.7h-.5c.15,0,.36,0,.5,0Z"/>
              <path class="cls-1" d="M74.99,57.56c.43-.23.48.3.17.33-.02,0-.33-.24-.17-.33Z"/>
              <path class="cls-10" d="M23.15,57.56s.33.24.17.33c-.43.23-.48-.3-.17-.33Z"/>
              <path class="cls-14" d="M72,57.56c.43-.23.48.3.17.33-.02,0-.33-.24-.17-.33Z"/>
              <path class="cls-14" d="M70.51,57.56c.43-.23.48.3.17.33-.02,0-.33-.24-.17-.33Z"/>
              <path class="cls-14" d="M67.86,57.56s.33.24.17.33c-.43.23-.48-.3-.17-.33Z"/>
              <path class="cls-10" d="M84.84,61.87h-.17l.08-.33c.41.29.08.31.08.33Z"/>
              <path class="cls-10" d="M78.88,61.7h-.33c.09,0,.25,0,.33,0Z"/>
              <path class="cls-10" d="M48.24,61.87c-.11,0-.22,0-.33,0-.05-.47.19-.36.33,0Z"/>
              <path class="cls-10" d="M40.62,61.87c-.11,0-.22,0-.33,0,.14-.36.38-.47.33,0Z"/>
              <path class="cls-10" d="M36.15,61.87c-.41,0-.31-.17-.33-.17.3-.16.35-.27.33.17Z"/>
              <polygon class="cls-10" points="33.09 61.54 33.17 61.79 32.92 61.87 32.84 61.79 33.09 61.54"/>
              <path class="cls-10" d="M31.68,61.87c-.11,0-.22,0-.33,0,.14-.36.38-.47.33,0Z"/>
              <path class="cls-10" d="M28.7,61.87c-.11,0-.22,0-.33,0-.05-.47.19-.36.33,0Z"/>
              <path class="cls-10" d="M22.57,61.87c-.11,0-.22,0-.33,0,.14-.36.38-.47.33,0Z"/>
              <g>
                <path class="cls-12" d="M25.47,52.26c1.84.04,2,2.89.83,3.81-2.89.55-3.36-3.87-.83-3.81Z"/>
                <path class="cls-9" d="M24.97,53.42c1.56-.47,1.75,1.97,0,1.49-.59-.16-.64-1.3,0-1.49Z"/>
              </g>
            </g>
          </g>
          <path class="cls-1" d="M62.32,77.27c0,.16,0,.33,0,.5-.28-.21-.47-.6,0-.5Z"/>
          <g>
            <path class="cls-6" d="M73.25,73.96c0,.11,0,.22,0,.33-1.05.23-.16,1.09-.17,1.24,0,.06-.33.27-.33.33-.01.87.09,2.05.33,2.9-.73,1.09-1.58,2.07-2.32,3.15-.73.27-3.05,1.67-3.31,2.4-.4,1.11.09,1.35.5,2.24.17.36.47,1.09.5,1.49-2,0-3.98.13-5.96.17-.25-.36-.15-.76-.17-1.16,0-.09,0-.23,0-.33,0-.44.14-1.16-.17-1.49,0-.1-.01-.15,0-.33.45-.15,0-.47,0-.5-.08-.29-.17-.69-.17-.99.67.36.17-.29.17-.33-.11-1.27.14-2.41.17-3.64v-.5c-.02-.41-.3.15-.17-.5.2.4.16-.22.17-.33.02-.19,0-.25,0-.33,0-.16,0-.33,0-.5,0-.14.01-.15,0-.33s.1-.48-.17-.5l.17-4.47-.17-.5c-.11-.51-.04-.65,0-1.16.58.01.16-.13.17-.33,0-.11,0-.22,0-.33.02-.55.3-1.29-.17-1.66v-.33c3.48.05,7.03.1,10.52-.17.57,1.53-.09,3.76.08,5.71.03.38-.05,1.23.5.75Z"/>
            <g>
              <path class="cls-6" d="M73.41,77.93c-.08.12-.17.58-.33.83-.24-.85-.35-2.03-.33-2.9,0-.06.33-.27.33-.33,0-.15-.88-1.01.17-1.24l.17,3.64Z"/>
              <path class="cls-6" d="M62.32,69.65c-.3-.4-.17-1.17-.17-1.66.46.37.19,1.11.17,1.66Z"/>
              <path class="cls-1" d="M62.32,86.71c-.51-.15-.2-.94-.17-1.49.3.33.16,1.05.17,1.49Z"/>
              <path class="cls-9" d="M66.04,84.89c.39-.06.49.44.17.5-.39.06-.49-.44-.17-.5Z"/>
              <path class="cls-9" d="M64.39,85.05c.06-.04.67-.09.58.25-.28.25-.95.01-.58-.25Z"/>
              <path class="cls-10" d="M61.99,83.4c0-.16.18-.18.17-.33,0,.04.51.69-.17.33Z"/>
              <path class="cls-1" d="M62.32,79.42c0-.08,0-.47,0-.5v.5Z"/>
              <path class="cls-1" d="M62.15,78.43c.03-.14-.08-.34.17-.33,0,.11.03.73-.17.33Z"/>
              <path class="cls-1" d="M62.32,76.94l-.17-.5c.26.01.15.31.17.5Z"/>
              <path class="cls-1" d="M62.32,71.97c-.28-.02-.13-.32-.17-.5l.17.5Z"/>
              <path class="cls-1" d="M62.15,70.31c.01-.16-.07-.34.17-.33,0,.2.42.34-.17.33Z"/>
              <path class="cls-10" d="M62.15,84.89c.01-.16,0-.33,0-.5,0,.02.45.34,0,.5Z"/>
            </g>
          </g>
          <path class="cls-6" d="M38.14,67.66c-.12,6.38-1.73,13.02-1.82,19.46-.28.76-1.59.29-2.32.41.78-6.62,1.58-13.24,2.32-19.87h1.82Z"/>
          <path class="cls-12" d="M36.48,66.17c-.03.47-.12.88-.17,1.32l-6.38.17c-1.36-2.59,5.17-1.51,6.54-1.49Z"/>
          <path class="cls-6" d="M38.14,67.66h-1.82c0-.05,0-.11,0-.17.05-.44.14-.86.17-1.32,0-.05,0-.11,0-.17.36.27,1.62.08,1.74.17.33.23-.08,1.26-.08,1.49Z"/>
          <g>
            <path class="cls-8" d="M89.97,36.7c.42,0,.52.33.58.33s.27-.33.33-.33c.09,0,.94.33.99.33.04,0,.48-.34.83-.33.52,0,1.31,0,1.66,0,.08,0,1.08.33,1.16.33,1.4.03,3.16-.24,4.47-.17.28.02.73.03.91.33,0,.22-.02.45,0,.66-.56,1.13-.7.37-1.41.5-2.85.5-2.84-.23-4.97-.17-.63.02-2.59.7-3.06,1.16-4.52.12-9.07-.24-13.58.17-.38.03-.51.36-.66.25-.14-.21.05-1.16-.25-1.24-.96-.27-4.49-.14-5.71-.17-2.53-.06-5.08.02-7.62,0-.16,0-.33,0-.5,0-.38-.56-1.17-.21-.66-1.49,1.37,0,3.26-.33,4.31-.33.02,0,.13.33.25.33,1.33,0,2.65,0,3.97,0,.21,0,.41,0,.5,0,5.84,0,10.71-.07,16.39,0,.07,0,.19-.33.5-.33.05,0,.17.49.33.5.32,0,.34-.34.66-.33.2,0,.48,0,.58,0Z"/>
            <path class="cls-7" d="M88.81,34.21c.49,1.1-.29,1.98,1.16,2.48-.1,0-.38,0-.58,0-.32,0-.34.34-.66.33-.16,0-.28-.5-.33-.5-.31,0-.43.33-.5.33-5.69-.07-10.56,0-16.39,0-.09,0-.28,0-.5,0-1.33,0-2.65,0-3.97,0-.12,0-.23-.33-.25-.33-.63-.47-.22-1.54-.33-2.32,6.65-.05,13.3.04,19.96,0,.67-.81-.26-1.7.58-2.32l.33-.08c-.05,1.86-.29,2.3,1.49,2.4Z"/>
            <path class="cls-8" d="M86.99,31.89c-.84.61.09,1.51-.58,2.32-6.65.04-13.31-.05-19.96,0-1.37.01-2.79-.17-4.14-.17-.2-3.44,2.28-1.47,3.73-2.32.86.79,1.49-.21,2.65-.17.13,0,.04.32.17.33.12.01-.03-.36.33-.33.09,0,.68.75,1.49.66.35-.04.78-.66.83-.66.11-.01,1.53,1.42,1.32-.17l.33.66.33-.66c.26.78,1.2,1.02,1.32,0l.33.66,11.84-.17Z"/>
            <path class="cls-12" d="M100.9,37.19c-.19-.3-.64-.32-.91-.33-1.31-.07-3.07.19-4.47.17-.08,0-1.08-.33-1.16-.33-.35,0-1.14,0-1.66,0-.34,0-.78.33-.83.33-.05,0-.9-.33-.99-.33-.06,0-.27.33-.33.33s-.16-.33-.58-.33c-1.45-.5-.67-1.38-1.16-2.48.29.02,1.02-.18,1.41-.17.07,0,.42.5.5.5.06,0,.78-.5,1.16-.5,3.09.05,6.19.29,9.27.17.18.12.1,2.29.08,2.73,0,.12-.33.23-.33.25Z"/>
            <path class="cls-6" d="M77.88,39.51l.41,5.3c3.19-.21,6.71.28,9.85,0-.29.52-.87.57-1.32.99-10.27.05-20.53-.04-30.8-.17v-.5c5.78.15,11.64.03,17.39-.25-.7.02-1.7-.24-2.32-.25.01-.15-.16-.17-.17-.33,0-.11,0-.22,0-.33,0-.03.51-.29-.17-.33-.1-.41-.07-.32,0-.66.28.42.46,0,.17-.33,0-.02.11.07.17-.33.04-.3-.03-.37-.33-.33-.01-.15.16-.17.17-.33v-.5c0-.37-.02-.8,0-1.16v-.5c0-.1,0-.31,0-.33v-.5s.37-.14.33-.33c1.23.03,4.75-.11,5.71.17.3.08.11,1.03.25,1.24.16.11.28-.21.66-.25Z"/>
            <path class="cls-7" d="M34.5,38.35c.03.19-.16.16-.17.17-.33.51,0,.45,0,.5.02.16.17.18.17.5-.87-.32-.24.3-.17.5,0,.01.09-.06.17.17-.7,0-.16.46-.17.5-.03.43,0,.83,0,1.24,0,.13-.33-.05-.33.33s.47-.24.17.58c-.04.12-.06.51.17.5-.05.24-.1.14-.17.33-.05.13-.04.34.17.33-.08.38-.17.51-.17.99-1.93-.03-3.87.09-5.8-.08-.26-.21-.02-5.89,0-6.71,2.02.28,4.09.16,6.13.17Z"/>
            <path class="cls-6" d="M49.57,36.7l.33,1.24-1.32.41c-4.69,0-9.39.02-14.08,0-2.04,0-4.11.11-6.13-.17.01-.42-.08-.83-.17-1.24,7.02-.15,14.09-.24,21.36-.25Z"/>
            <path class="cls-6" d="M62.48,36.86c-.51,1.29.28.93.66,1.49-4.8-.04-9.61,0-14.41,0-.06,0-.11,0-.17,0l1.32-.41-.33-1.24c3.59,0,6.75-.16,10.02-.17.05,0,.16.33.66.33s1.38,0,2.24,0Z"/>
            <path class="cls-7" d="M41.12,45.14l-.17.33c-.12,0-.23,0-.33,0,.09-.6-.41-.07-.66,0-.18.05-.21.13-.5.17.22-.64-.57-.42-.99-.17-.11,0-.22,0-.33,0h-.99c-.2,0-.3,0-.5,0h-.83s-.08.02-.33,0h-.66s.07.19-.33,0l-.33-.33c0-.05,0-.11,0-.17,2.01.03,5.1-.38,6.96.17Z"/>
            <path class="cls-6" d="M71.26,38.35c.04.19-.31.31-.33.33-.37.49,0,.47,0,.5,0,.02,0,.23,0,.33,0,.17,0,.38,0,.5-.02.36,0,.79,0,1.16,0,.17,0,.36,0,.5,0,.16-.18.18-.17.33.02.29-.04.38.33.33-.05.4-.16.31-.17.33s-.09-.04-.17.33c-.07.34-.1.25,0,.66.03.13-.08.34.17.33,0,.11,0,.22,0,.33l-.17.33c-1.42-.01-5.8.53-6.87.17-.06-.02-.37-.5-.41-.66.64-.22.16-.63.17-.83,0-.06,0-.11,0-.17,0-.25.03-.19,0-.5,0-.02.01-.11,0-.33v-.5c0-.11,0-.22,0-.33v-.33c0-.11,0-.42,0-.5v-.33c0-.09,0-.31,0-.33.02-.19.09-.63-.17-.66,0-.11-.01-.22,0-.33.23,0,.15-.18.17-.33.01-.11,0-.22,0-.33,2.53.02,5.09-.06,7.62,0Z"/>
            <path class="cls-1" d="M70.76,42.99c.08-.37.16-.31.17-.33.29.33.11.75-.17.33Z"/>
            <path class="cls-1" d="M70.93,43.98c-.25,0-.13-.2-.17-.33.67.04.16.3.17.33Z"/>
            <path class="cls-1" d="M71.09,42.33c-.37.05-.31-.04-.33-.33.31-.04.37.03.33.33Z"/>
            <path class="cls-1" d="M70.93,41.66c0-.14,0-.33,0-.5v.5Z"/>
            <path class="cls-1" d="M71.09,44.65c-.11,0-.22,0-.33,0l.17-.33c0,.16.18.18.17.33Z"/>
            <path class="cls-1" d="M70.93,40.01c0-.12,0-.33,0-.5v.5Z"/>
            <path class="cls-1" d="M70.93,39.18s-.37,0,0-.5v.5Z"/>
            <g>
              <path class="cls-12" d="M91.46,39.35c-1.07,1.04-1.51,3.78-1.66,5.22-.53.31-1.09.2-1.66.25-3.14.28-6.67-.21-9.85,0l-.41-5.3c4.51-.4,9.06-.04,13.58-.17Z"/>
              <path class="cls-8" d="M79.62,42.99c2.26.16,4.65-.32,6.87.25l-3.73.08-3.15-.33Z"/>
              <path class="cls-8" d="M79.79,41c.25-.08,3.39-.05,3.39.25-.18.61-4.67.17-3.39-.25Z"/>
              <path class="cls-8" d="M85.09,41c.37-.03,1.49.04,1.74.41-.79.02-2.55.4-2.9-.25.38.16.95-.15,1.16-.17Z"/>
            </g>
            <path class="cls-8" d="M34.5,39.51c0,.27-.07.29-.17.5-.08-.2-.7-.81.17-.5Z"/>
            <g>
              <path class="cls-12" d="M48.57,38.35c.06,0,.11,0,.17,0v.17c-.14.22,0,.4,0,.5.02.16-.02.34,0,.5-.13-.02-.18.04-.17.17.02.19.11.36.17.66-.44.19,0,.31,0,.33.01.16-.03.34,0,.5,0,.02-.06-.05,0,.33.02.15.14.18.17.33-.53.19-.16.32-.17.5,0,.16,0,.33,0,.5,0,.02-.33.2.17.33-.16.65-.29.3-.17,1.16,0,.02-.29.08-.17.41.07.15.26.05.33.08.46.21,6.1.31,7.12.33v.5c-.11,0-.22,0-.33,0,.51-.64-1.6-.6-1.32-.17-.03,0-.24.17-.66.17.43-.45-1-.66-.83,0-.16,0-.33,0-.5,0,.44-.45-.57-.47-.83-.17-.11,0-.21,0-.33,0h-.83c-.1,0-.22,0-.33,0,.05-.54-.38-.37-.5,0-.11,0-.2,0-.33,0-.16-.45-.52-.43-.66,0-.03,0-.13.01-.33,0-.1-.5-1.78-.41-1.49.17-.13-.03-.2-.11-.33-.17-.04-.01-.13-.86-.33,0-.02,0-.33,0-.5,0,.05-.47-.19-.36-.33,0-.03,0-.12,0-.17,0-.14-.4-.36-.4-.5,0-.05,0-.13,0-.17,0-.18-.44-.69-.04-.83,0-.02,0,.07.11-.33.17.08-.43-1.21-.67-.99-.17-.32.02-.41,0-.66,0,.07-.5-.26-.26-.5-.33-1.86-.54-4.95-.13-6.96-.17,0-.49.08-.61.17-.99,0-.03.49-.31-.17-.33.07-.19.11-.09.17-.33s.32-.31-.17-.5c.3-.82-.17-.2-.17-.58s.33-.2.33-.33c0-.41-.03-.82,0-1.24.22.01.21-.37.17-.5-.08-.23-.16-.15-.17-.17.09-.2.17-.23.17-.5,0-.32-.15-.34-.17-.5v-.5s.19.03.17-.17c4.69.02,9.39,0,14.08,0Z"/>
              <g>
                <path class="cls-8" d="M55.69,45.64c-.48,0-1.04-.16-1.32-.17-.28-.43,1.83-.48,1.32.17Z"/>
                <path class="cls-8" d="M48.24,45.47c-.13,0-1.34.2-1.49.17-.29-.57,1.39-.67,1.49-.17Z"/>
                <path class="cls-8" d="M43.27,45.64c-.44.06-.94-.17-.99-.17-.21-.5,1.08-.26.99.17Z"/>
                <path class="cls-8" d="M53.71,45.64c-.27,0-.55,0-.83,0-.17-.66,1.26-.45.83,0Z"/>
                <path class="cls-8" d="M52.38,45.64c-.38,0-.79-.17-.83-.17.26-.31,1.27-.29.83.17Z"/>
                <path class="cls-8" d="M41.62,45.47c-.2,0-.47,0-.66,0l.17-.33c.23.07.57-.17.5.33Z"/>
                <path class="cls-8" d="M51.22,45.47c-.27,0-.54,0-.83,0h.83Z"/>
                <path class="cls-8" d="M44.43,45.47c-.2,0-.42.38-.83,0,.14-.04.65-.44.83,0Z"/>
                <path class="cls-8" d="M50.06,45.47c-.15,0-.32,0-.5,0,.11-.37.55-.54.5,0Z"/>
                <path class="cls-8" d="M49.23,45.47c-.19,0-.39.01-.66,0,.15-.43.5-.45.66,0Z"/>
                <path class="cls-8" d="M46.42,45.47c-.18.44-.31,0-.33,0,.2-.86.3-.01.33,0Z"/>
                <path class="cls-8" d="M45.09,45.47c-.16,0-.34,0-.5,0,.14-.4.36-.4.5,0Z"/>
                <path class="cls-8" d="M45.59,45.47s-.23,0-.33,0c.14-.36.38-.47.33,0Z"/>
                <path class="cls-8" d="M48.9,44.81c-.07-.03-.26.07-.33-.08-.13-.34.17-.39.17-.41l.17.5Z"/>
                <path class="cls-8" d="M41.2,42.82c.29-.13.35.41.17.5-.29.13-.35-.41-.17-.5Z"/>
                <path class="cls-8" d="M34.5,40.17c.04.12.06.51-.17.5,0-.04-.53-.49.17-.5Z"/>
                <path class="cls-8" d="M34.33,39.02s-.33.01,0-.5v.5Z"/>
                <path class="cls-8" d="M41.2,42c.33-.07.33.42.17.5-.06.03-.42-.45-.17-.5Z"/>
                <path class="cls-8" d="M48.74,39.02c0-.1-.14-.28,0-.5v.5Z"/>
                <path class="cls-1" d="M48.74,40.67s-.44-.15,0-.33c0,.02.44.15,0,.33Z"/>
                <path class="cls-8" d="M41.2,40.51c.25-.09.36.24.17.33-.24.11-.37-.26-.17-.33Z"/>
                <path class="cls-8" d="M41.2,44.48c.25-.09.36.24.17.33-.24.11-.37-.26-.17-.33Z"/>
                <path class="cls-1" d="M48.74,41.5c-.06-.38,0-.31,0-.33v.33Z"/>
                <path class="cls-8" d="M34.33,43.98c-.2,0-.21-.2-.17-.33.65.02.17.3.17.33Z"/>
                <path class="cls-8" d="M34.33,43.32c-.22.01-.21-.38-.17-.5.48.19.22.25.17.5Z"/>
                <path class="cls-1" d="M48.74,42.33c0-.17-.36-.31.17-.5.03.17.07.5-.17.5Z"/>
                <path class="cls-1" d="M48.9,43.16c-.5-.13-.17-.31-.17-.33.21,0,.2.19.17.33Z"/>
                <polygon class="cls-8" points="41.37 41.17 41.45 41.42 41.2 41.5 41.12 41.42 41.37 41.17"/>
                <path class="cls-1" d="M48.57,39.68c-.02-.13.04-.18.17-.17,0,.03.47.48-.17.17Z"/>
              </g>
            </g>
            <g>
              <path class="cls-12" d="M63.14,38.35c.16,0,.33,0,.5,0,0,.11.01.22,0,.33-.49.13-.16.31-.17.33-.01.11,0,.22,0,.33,0,.36-.33.49.17.66,0,.02,0,.24,0,.33,0,.02-.31-.06-.33.08-.06.36.33.23.33.25,0,.08,0,.39,0,.5,0,.02-.34-.05-.33.08.02.4.33.23.33.25,0,.11,0,.22,0,.33,0,.02-.01.25,0,.5.01.22,0,.31,0,.33-.4.14-.4.36,0,.5,0,.06,0,.11,0,.17-.25.04-.2.68-.17.83.04.16.35.64.41.66,1.07.36,5.46-.18,6.87-.17.11,0,.22,0,.33,0,.61,0,1.62.27,2.32.25-5.74.28-11.61.4-17.39.25-1.02-.03-6.66-.12-7.12-.33l-.17-.5c-.12-.86,0-.51.17-1.16.04-.14.04-.34-.17-.33,0-.16,0-.33,0-.5.23,0,.19-.33.17-.5-.03-.16-.14-.18-.17-.33v-.33c-.03-.16.01-.34,0-.5.44-.18,0-.31,0-.33-.06-.3-.14-.47-.17-.66.64.31.17-.13.17-.17-.02-.16.02-.33,0-.5v-.66c4.8,0,9.61-.04,14.41,0Z"/>
              <g>
                <path class="cls-8" d="M63.48,44.15c-.04-.15-.08-.79.17-.83,0,.2.48.6-.17.83Z"/>
                <path class="cls-8" d="M56.27,43.32c.29-.18.35.58.17.66-.31.14-.35-.55-.17-.66Z"/>
                <path class="cls-1" d="M56.27,44.31c.29-.13.35.41.17.5-.29.13-.35-.41-.17-.5Z"/>
                <path class="cls-8" d="M56.27,40.17c.33-.02.19.62,0,.66-.14-.15-.14-.5,0-.66Z"/>
                <path class="cls-8" d="M63.64,40.01c-.5-.17-.17-.3-.17-.66.25.03.18.47.17.66Z"/>
                <path class="cls-1" d="M63.64,41.17v.33s-.31.15-.33-.25c0-.13.33-.07.33-.08Z"/>
                <path class="cls-1" d="M63.64,43.16c-.4-.14-.4-.36,0-.5.03.31,0,.25,0,.5Z"/>
                <path class="cls-1" d="M63.64,40.34v.33s-.39.12-.33-.25c.02-.14.33-.07.33-.08Z"/>
                <path class="cls-1" d="M63.64,42.33c-.01-.25,0-.47,0-.5v.5Z"/>
                <path class="cls-1" d="M56.27,41.83c.25-.09.36.24.17.33-.24.11-.37-.26-.17-.33Z"/>
                <polygon class="cls-1" points="56.27 41 56.44 41.17 56.44 41.33 56.27 41.33 56.27 41"/>
                <polygon class="cls-1" points="56.27 39.51 56.52 39.59 56.27 39.84 56.19 39.76 56.27 39.51"/>
                <path class="cls-1" d="M63.48,39.02s-.32-.2.17-.33c-.02.15.07.34-.17.33Z"/>
              </g>
            </g>
          </g>
          <g>
            <path class="cls-2" d="M44.43,65.51c-.08.37.15,1.29.5,1.66.03.03-.07.27.08.33.48.18,8.97.14,10.35.17,0,.47-.23,1.51-.17,1.9.05.3.38-.04.33.58-.52-.05-.16.15-.17.17-.02.08,0,.23,0,.33,0,.03-.51.29.17.33.09.43.02.22,0,.5,0,.02-.33-.05-.33.08,0,.12.33.23.33.25,0,.05,0,.11,0,.17-.32,0-.46.64,0,.66-.03.51-.63,1.11,0,1.82-.87.21,0,.29,0,.33-.02.35-.3-.29-.33.66,0,.05-.01.12,0,.17.01.05-.02.12,0,.17.07.21-.1.4.33.33.02.1.01.23,0,.33-.3-.04-.38.03-.33.33.03.18.37.75.33.99-.37-.04-.31.04-.33.33,0,.05,0,.11,0,.17.02.24.05.3.17.5-.16.59-.41.16,0,.99-.36.14-.18.16,0,.33,1.05.96.03,1.3,0,2.15,0,.14-.01.15,0,.33.02.25.29-.02.17,1.16-.29-.34-.44.3,0,.33,0,.02,0,.26,0,.33,0,.02-.32-.05-.33.08,0,.11.33.23.33.25,0,.12,0,.39,0,.5l-.33.08.33.08c-.03.15.04.37,0,.5-.32-.17-.31-.26-.33.17,0,.1-.02.25,0,.33.11.39-.02.37.5.33.02.11.02.39,0,.5-.29-.03-.31-.04-.5.17-.12.13-.23.59-.33.66-.16,0-.33,0-.5,0-1.79.02-8.49.35-9.69,0-.15-.04-.69-.28-.75-.41v-21.86c.15-.26.3-.2.5-.25Z"/>
            <g>
              <path class="cls-1" d="M54.86,88.03c-.29.21-.26.11-.5.17v-.17c.16,0,.33,0,.5,0Z"/>
              <path class="cls-8" d="M55.53,72.63c-.46-.02-.32-.66,0-.66-.02.22.01.44,0,.66Z"/>
              <path class="cls-8" d="M55.2,75.61s0-.12,0-.17l.33-.25-.33.41Z"/>
              <path class="cls-1" d="M55.69,86.71c-.51.04-.39.06-.5-.33.25-.04.44.09.5.33Z"/>
              <path class="cls-1" d="M55.69,87.21c-.07.33-.25.35-.5.17.18-.2.21-.2.5-.17Z"/>
              <path class="cls-10" d="M55.53,84.39v.33s-.34-.14-.33-.25c0-.14.33-.07.33-.08Z"/>
              <path class="cls-1" d="M55.53,83.73c-.01.11,0,.22,0,.33-.44-.03-.29-.67,0-.33Z"/>
              <path class="cls-8" d="M55.53,70.98c-.67-.04-.16-.3-.17-.33.25,0,.14.2.17.33Z"/>
              <path class="cls-1" d="M55.36,82.57c-.01-.18,0-.19,0-.33v.33Z"/>
              <path class="cls-1" d="M55.53,74.45v.33s-.87-.12,0-.33Z"/>
              <path class="cls-1" d="M55.53,76.44c-.04.27.06.38-.33.33-.05-.3.03-.38.33-.33Z"/>
              <path class="cls-1" d="M55.36,80.09c-.18-.17-.36-.19,0-.33,0,.01.45.16,0,.33Z"/>
              <path class="cls-1" d="M55.53,77.77c-.04.27.06.38-.33.33.02-.29-.03-.38.33-.33Z"/>
              <path class="cls-1" d="M55.36,78.76c-.11-.2-.14-.25-.17-.5.51.18.22.3.17.5Z"/>
              <path class="cls-1" d="M55.53,76.11c-.43.06-.27-.12-.33-.33.16.02.31.18.33.33Z"/>
              <path class="cls-1" d="M55.53,71.47v.33s-.33-.13-.33-.25c0-.13.33-.07.33-.08Z"/>
              <path class="cls-1" d="M55.53,85.22c0,.05,0,.12,0,.17l-.33-.08.33-.08Z"/>
              <path class="cls-1" d="M55.53,85.88c-.07.23-.13.19-.33.17.02-.42.02-.33.33-.17Z"/>
              <path class="cls-8" d="M55.53,70.15c0,.11.38.18-.17.17,0-.01-.35-.22.17-.17Z"/>
              <path class="cls-9" d="M52.3,72.63c.09,0,1.56.43,1.74.58-1.37-.39-1.31,1.09-1.57,1.08-.19,0-.05-1.29-1.24-1.24,0-.06,1.02-.41,1.08-.41Z"/>
              <path class="cls-1" d="M55.28,82.9c.25-.09.36.24.17.33-.24.11-.37-.26-.17-.33Z"/>
              <path class="cls-1" d="M55.28,80.42c.25-.09.36.24.17.33-.24.11-.37-.26-.17-.33Z"/>
            </g>
          </g>
        </g>
      </g>
    </g>
  </g>
</svg>