<?xml version="1.0" encoding="UTF-8"?>
<svg id="Layer_2" data-name="Layer 2" xmlns="http://www.w3.org/2000/svg" viewBox="0 0 128.3 128.87">
  <defs>
    <style>
      .cls-1 {
        fill: #132e4f;
      }

      .cls-2 {
        fill: #7f6893;
      }

      .cls-3 {
        fill: #9d8baf;
      }

      .cls-4 {
        fill: #f7b975;
      }

      .cls-5 {
        fill: #fff;
      }

      .cls-6 {
        fill: #d56f98;
      }

      .cls-7 {
        fill: #204064;
      }

      .cls-8 {
        fill: #adb6ca;
      }

      .cls-9 {
        fill: #d9d6e1;
      }
    </style>
  </defs>
  <g id="Layer_1-2" data-name="Layer 1">
    <g id="Generative_Object" data-name="Generative Object">
      <g>
        <path class="cls-3" d="M117.87,100.23c-25.77,38.5-82.32,38.08-107.64-.66l107.64.66Z"/>
        <path class="cls-2" d="M121.51,94.11c-1.09,2.22-2.28,4.09-3.64,6.13l-107.64-.66c-.53-.82-1-1.64-1.49-2.48l.08-.83,110.96.17c.32-.2.39-.55.58-.83.43-.63.83-1.03.33-1.66l.83.17Z"/>
        <path class="cls-8" d="M95.51,91.29c9.04.06,18.11.3,27.16.17-.31.72-.7,1.72-1.16,2.65l-.83-.17-113.6.17c-.46-.93-.85-1.92-1.16-2.65h14.9c9.71,0,19.44-.15,29.15-.17,6.28-.01,12.59.21,18.88.17,1.8-.01,4-.31,5.46-.33,3.48-.04,7.01.28,10.52.17.3-.01.82.17.75-.33.03.07.24.27.25.5,3.22.19,6.49-.19,9.69-.17Z"/>
        <path class="cls-2" d="M120.68,93.94c.5.62.1,1.02-.33,1.66H7.9c-.28-.53-.54-.91-.83-1.49l113.6-.17Z"/>
        <path class="cls-2" d="M120.35,95.6c-.19.28-.26.63-.58.83l-110.96-.17-.08.83c-.29-.5-.55-.98-.83-1.49h112.45Z"/>
      </g>
      <path class="cls-1" d="M98.49,76.72c-1.31.87-3.11.7-4.64.83-.06-1.71-.73-4.12.75-5.3,1.43,1.38,2.51,3.05,3.89,4.47Z"/>
      <g>
        <path class="cls-9" d="M122.67,91.46c-9.05.14-18.11-.11-27.16-.17-.02-.16.03-.34,0-.5-.77-4.39-1.51-8.78-1.66-13.25,1.52-.13,3.32.04,4.64-.83,5.74,5.89,8.11,6.62,14.49.99,2.43-2.14,4.7-4.91,6.71-7.45,2.43-1.64,5.74-1.75,7.78-3.89-.53-3.02-4.92-1.78-6.71-.58-.8.54-1.71,1.86-2.57,2.48-1.43,1.04-10.07,7.38-11.18,7.45-.08,0-1.61-.13-1.08-.66,3.16-.77,4.13-7.8,2.32-10.18,8.16-.88,10.35-12.57,2.57-15.48-.61-.23-2.97-.45-3.06-.58-.05-.07-.02-1.43-.17-1.82-1.17-3.12-3.66-4.13-6.79-4.22,2.54-7.16-4.65-11.66-10.68-7.62-.22-1.08-.44-1.82-.91-2.82-2.06-4.4-7.09-5.71-11.34-3.48-.71.37-1.76,1.64-2.32,1.82-1.82.61-2.69-.31-4.22,1.99-1.67,2.49-1.84,7.2-1.82,10.1,0,.87-.26,1.76-.17,2.73.4,4,3.78,6.58,1.66,10.68-.37.73-1.6,1.72-2.15,2.73-1.01,1.84-6,13.06-6.62,13.58-.4.33-4.35.36-4.97.25l.17-29.06c-.49-1.79-1.5-2.96-3.39-3.23l-41.57.17c-.45.22-.84.34-1.24.66-.1-.5.22-.65.58-.83,2.69-1.35,15.11.42,19.04-.33.72-.14,2.86-1.49,3.97-1.82,10.14-3,20.04-4.26,28.48-11.43,6.96-5.9,9.97-14.94,17.72-20.37,1.4-.98,3.23-1.55,4.39-2.82,36.3,12.65,52.3,52.68,37.26,87.77Z"/>
        <path class="cls-5" d="M85.41,3.69c-1.16,1.27-2.99,1.83-4.39,2.82-7.75,5.43-10.76,14.46-17.72,20.37-8.44,7.17-18.34,8.42-28.48,11.43-1.12.33-3.26,1.68-3.97,1.82-3.93.75-16.35-1.02-19.04.33-.36.18-.68.33-.58.83-2.04,1.62-1.29,9.7-1.32,12.42-5.24,8.82-1.41,20.62-7.12,29.15C-12.17,32.66,35.89-13.58,85.41,3.69Z"/>
        <path class="cls-9" d="M24.13,83.84l-3.31,7.62H5.92c-1.22-2.85-2.26-5.64-3.15-8.61,5.71-8.53,1.88-20.33,7.12-29.15-.05,4.52-.72,25.17.33,27.9.2.53,1.06,1.49,1.57,1.74,1.75.87,9.83.48,12.34.5Z"/>
        <path class="cls-9" d="M69.84,72.25c.61,6.13-.99,12.67-.99,18.71v.5c-6.29.04-12.6-.18-18.88-.17l-1.49-7.45c4.49-.07,9.65,1.09,8.94-5.46,1.83.09,4.71.71,6.38,0,1.95-.84,4.58-5.77,5.71-7.62.32.72.26.74.33,1.49Z"/>
      </g>
      <g>
        <path class="cls-1" d="M72.32,44.59c-.01,1.29,1.1,6.43,2.24,6.96,1.38.64,3.2-.2,4.55-.5l-.17,1.82c-.33.09-.78.1-.99.17-.84.26-1.87.27-2.73.66-1.53.69-2.6,1.97-4.22,2.48,2.12-4.1-1.26-6.68-1.66-10.68-.1-.98.17-1.86.17-2.73.73.96,1.43,2.02,2.82,1.82Z"/>
        <path class="cls-1" d="M89.22,32.34c.47,1,.69,1.73.91,2.82,6.03-4.04,13.22.45,10.68,7.62-.38-.01-.74.29-.99.08-.01-.35.49-1.01.5-1.16.23-5.67-5.88-7.17-10.18-6.21l-.58-.41c-.07-.65.43-.7-.33-.83v-1.9Z"/>
        <path class="cls-7" d="M72.66,42.27c-.11.7-.32,1.65-.33,2.32-1.39.2-2.09-.86-2.82-1.82-.02-2.9.15-7.61,1.82-10.1.68.14-.27,1.15-.33,1.57-.4,2.99.86,2.84,1.16,4.47.19,1.01-.68,2.72.5,3.56Z"/>
        <path class="cls-1" d="M74.81,85.83c.04.32-.15,1.19.25,1.32,1.54-.33,3.16-.13,4.72-.17,1.85-.04,3.66,0,5.46-.5.02.72.14,4.04.33,4.47.07.5-.44.32-.75.33-3.5.12-7.03-.2-10.52-.17.2-1.73.25-3.56.17-5.3h.33Z"/>
        <path class="cls-6" d="M87.06,55.52c-1.3,6.58-1.96,13.33-1.16,20.04.04.33.19.55.33.83-1.02,2.71-1.08,7.07-.99,10.1-1.8.49-3.61.46-5.46.5l-.08-1.16c-4.22.47-5.65-3.19-3.23-6.38,2.06-2.71,4.62-3.53,7.95-2.82-1.59-.29-3.13-1.9-4.55-2.24-1.81-.42-5.82-.03-7.37-.83-.79-.41-.51-2.1-.5-2.98.08-4.66,2.36-8.46,3.97-12.67.1-.25.44-1.19.17-1.41.36-.73.78-1.43,1.16-2.15-.49,1.26-.9,7.77.25,8.28,2.02.89,8.2-5.52,9.52-7.12Z"/>
        <g>
          <path class="cls-1" d="M89.22,32.34v1.9c.77.13.26.18.33.83l.58.41c4.3-.96,10.41.54,10.18,6.21,0,.15-.51.81-.5,1.16.25.2.61-.09.99-.08,3.13.09,5.62,1.11,6.79,4.22.15.39.11,1.75.17,1.82.09.13,2.46.35,3.06.58,7.78,2.92,5.6,14.61-2.57,15.48,1.81,2.39.84,9.42-2.32,10.18-.99.24-1.25-.83-1.82-1.74-2.82-4.52-6.42-15.57-10.68-17.64-1.5-.73-4.74-1.18-5.88-1.82s-3.22-6.91-2.82-7.87c.07-.16,1.5-.57,1.99-1.82.4-1.03.74-3.58-.75-3.89-1-.21-1.23.39-1.9.83-.37.24-.65.65-.99.58.14-1.9.14-4.34-1.32-5.8-.88-.88-5.47-2.74-6.71-2.4-.14.04-2.17,1.45-2.24,1.57-.49.85.06,2.4.17,3.31l.83-.41c-.31.51-1.05,3.59-1.16,4.31-1.18-.84-.31-2.55-.5-3.56-.3-1.64-1.56-1.48-1.16-4.47.06-.42,1.01-1.43.33-1.57,1.54-2.29,2.41-1.38,4.22-1.99.56-.19,1.61-1.45,2.32-1.82,4.25-2.23,9.28-.92,11.34,3.48Z"/>
          <path class="cls-7" d="M94.27,37.8c.51-.1,1.1.21,1.49.5,2.59,1.9.51,8.9,1.99,9.77,1.21.71,3.59-1.57,5.46-.17,1.36,1.02.71,4.82,2.82,5.13,1.57.24,2.01-1.65,2.65-1.82,2.34-.64.39,4.21-.99,5.13-1.56,1.04-4.53,1.19-5.22-.91-.47-1.42.16-5.04-1.57-5.88-1.19-.57-2,1.04-3.81.66-2.98-.62-1.8-5.19-2.07-7.2-.17-1.27-2.64-4.84-.75-5.22Z"/>
        </g>
        <path class="cls-1" d="M84.08,41.11l-.91,2.48c-.09-.82-.88-5.81-1.49-5.96-.29-.08-.32.64-.83.66-.86.03-5.06-3.61-7.04-.33l-.83.41c-.11-.91-.66-2.46-.17-3.31.07-.12,2.09-1.54,2.24-1.57,1.23-.33,5.83,1.52,6.71,2.4,1.46,1.46,1.46,3.9,1.32,5.8.34.07.62-.34.99-.58Z"/>
        <g>
          <path class="cls-5" d="M105.94,75.06c-.53.53.99.67,1.08.66,1.11-.07,9.75-6.42,11.18-7.45.22.46.46.97.83,1.32-.56-.14-.29-.17-.66.08-4.17,2.84-9.05,13.04-15.15,8.03-4.55-3.74-6.57-10.33-9.52-14.82-.09-.14-.42-.58-.58-.25s.68,5.87.58,7.04c-.19,2.21-1.81,4.7-2.15,6.79-.36,2.19.03,13.01,1.49,14.41.36.34,2.15.46,2.48-.08.03.16-.02.34,0,.5-3.2-.02-6.47.36-9.69.17-.01-.23-.22-.43-.25-.5-.19-.43-.31-3.75-.33-4.47-.09-3.03-.03-7.39.99-10.1,1.28-3.39,3.21-6.65,3.97-10.35.37-1.77,1.25-5.97-.33-6.96.66,1.6.14,3.79-.17,5.46-.4,2.19-1.41,5.48-2.15,7.62-.35,1.03-.91,2.69-1.66,3.39-.8-6.7-.15-13.46,1.16-20.04.11-.55-.03-1.22.5-1.66,1.14.64,4.37,1.09,5.88,1.82,4.27,2.07,7.86,13.11,10.68,17.64.57.91.83,1.98,1.82,1.74Z"/>
          <path class="cls-5" d="M119.03,69.6c.22.21.37.49.66.66-2.01,2.55-4.28,5.31-6.71,7.45-6.38,5.62-8.75,4.89-14.49-.99-1.38-1.42-2.46-3.09-3.89-4.47-1.48,1.18-.8,3.59-.75,5.3.15,4.47.88,8.86,1.66,13.25-.34.55-2.13.42-2.48.08-1.46-1.39-1.85-12.22-1.49-14.41s1.96-4.58,2.15-6.79c.1-1.17-.74-6.72-.58-7.04s.49.11.58.25c2.96,4.5,4.97,11.09,9.52,14.82,6.1,5,10.98-5.19,15.15-8.03.38-.26.1-.22.66-.08Z"/>
          <path class="cls-5" d="M69.51,70.76c-1.13,1.85-3.76,6.78-5.71,7.62-1.67.71-4.55.09-6.38,0-.27-.01-.56.02-.83,0-.9-.06-1.57.17-1.66.17-1.44-.14-3.67-.8-5.13-1.16-2.05-.51-3.9-1.53-6.29-1.49-.06-.23.1-.32.17-.5.15-.4.61-1.38.66-1.66,3.47.38,6.89,1.4,10.35,1.82,1.91.24,6.42.86,8.11.5,1.94-.41,4.1-5.24,4.97-6.96.72.31,1.42.94,1.74,1.66Z"/>
          <path class="cls-9" d="M68.85,90.96c0-6.05,1.6-12.59.99-18.71l.5-.08,1.32,18.55-.25.41-2.57-.17Z"/>
          <path class="cls-2" d="M71.99,70.59c-.72.12.06.72-.83.17-.23-4.45,2.97-10.21,4.97-14.24.28.21-.07,1.16-.17,1.41-1.61,4.21-3.9,8.01-3.97,12.67Z"/>
          <path class="cls-7" d="M71.99,70.59c-.01.88-.29,2.57.5,2.98-.81.51.33,1.57.5,2.07,1.31,3.95,1.32,6.26,1.82,10.18h-.33c-.25-5.33-3.04-9.83-3.31-15.07.89.56.11-.04.83-.17Z"/>
          <path class="cls-8" d="M86.24,76.39c-.14-.28-.29-.5-.33-.83.75-.71,1.3-2.37,1.66-3.39.74-2.14,1.75-5.43,2.15-7.62.31-1.68.83-3.86.17-5.46,1.59.99.7,5.18.33,6.96-.77,3.7-2.69,6.96-3.97,10.35Z"/>
        </g>
        <g>
          <path class="cls-4" d="M119.69,70.26c-.29-.17-.44-.45-.66-.66-.37-.36-.61-.87-.83-1.32.86-.62,1.77-1.94,2.57-2.48,1.79-1.2,6.18-2.44,6.71.58-2.05,2.14-5.35,2.25-7.78,3.89Z"/>
          <path class="cls-4" d="M84.08,41.11c.67-.44.9-1.04,1.9-.83,1.48.31,1.15,2.86.75,3.89-.49,1.25-1.92,1.66-1.99,1.82-.41.95,1.63,7.2,2.82,7.87-.53.43-.39,1.11-.5,1.66-1.32,1.6-7.51,8.01-9.52,7.12-1.15-.51-.74-7.02-.25-8.28.22-.41.36-.93.66-1.32.21-.06.67-.07.99-.17,3.34-.96,3.35-1.99,4.64-5.05l-4.47,3.23c-1.35.29-3.18,1.14-4.55.5-1.14-.53-2.25-5.67-2.24-6.96,0-.67.22-1.62.33-2.32s.85-3.8,1.16-4.31c1.98-3.28,6.18.36,7.04.33.51-.02.54-.74.83-.66.61.16,1.4,5.14,1.49,5.96l.91-2.48Z"/>
          <path class="cls-4" d="M44.34,73.74c-.05.28-.51,1.25-.66,1.66-2.18-.22-8.31.36-9.44-1.99-.12-.25-.2-.33-.17-.66.02-.16.23-.29.33-.5.62-1.21,1.64-1.53,2.82-2.15,1.83-.97,2.88-1.85,4.89-.66.16.1,2.35,2.24,2.4,2.4.03.09-.13,1.71-.17,1.9Z"/>
          <path class="cls-2" d="M78.95,52.87l.17-1.82,4.47-3.23c-1.29,3.06-1.29,4.09-4.64,5.05Z"/>
        </g>
        <path class="cls-2" d="M79.78,86.98c-1.56.03-3.18-.16-4.72.17-.4-.14-.21-1-.25-1.32-.5-3.92-.51-6.23-1.82-10.18-.17-.5-1.3-1.56-.5-2.07,1.55.8,5.56.4,7.37.83,1.42.33,2.97,1.95,4.55,2.24-3.33-.71-5.89.1-7.95,2.82-2.42,3.18-.99,6.84,3.23,6.38l.08,1.16Z"/>
      </g>
      <g>
        <path class="cls-2" d="M57.25,72.74c-.18-.03-.56.08-.66-.08v-28.82c-.35-1.45-1.11-2.22-2.57-2.57H13.29c-1.14.31-1.91.79-2.4,1.9l-.17,37.1c.25,1.32.8,2.11,2.07,2.57,13.19-.58,27.04.77,40.16,0,3.35-.2,3.74-1.07,3.64-4.47.27.02.55-.01.83,0,.71,6.55-4.45,5.39-8.94,5.46-8.08.13-16.25.05-24.34,0-2.5-.02-10.58.37-12.34-.5-.51-.25-1.37-1.21-1.57-1.74-1.05-2.74-.38-23.38-.33-27.9.03-2.72-.72-10.8,1.32-12.42.4-.32.79-.44,1.24-.66l41.57-.17c1.89.27,2.91,1.43,3.39,3.23l-.17,29.06Z"/>
        <path class="cls-5" d="M48.48,83.84l1.49,7.45c-9.71.02-19.43.17-29.15.17l3.31-7.62c8.1.05,16.26.13,24.34,0Z"/>
        <path class="cls-3" d="M49.14,77.88c-.53.55-.56,1.56-1.08,1.82-.69.35-4.18.14-5.22.17l.08-1.49c-2.84-.04-5.69.06-8.53,0-1.16-.02-2.34-.14-3.48-.17.06-.23-.1-.32-.17-.5-.02-.05.02-.12,0-.17l18.38.33Z"/>
        <path class="cls-8" d="M43.51,75.89c2.39-.03,4.24.98,6.29,1.49-.2.14-.5.33-.66.5l-18.38-.33c-.12-.25-.39-.34-.33-.66,2.75.02,5.59-.15,8.36-.17.09,0,.42,0,.5,0,2.1-.01,4.2-.03,6.29,0,.25-.42-.09-.29-.33-.33-1.18-.21-2.98-.13-4.22-.17.79.04,1.72-.32,2.48-.33Z"/>
        <path class="cls-9" d="M42.85,79.86c-2.71.06-5.41-.13-8.11-.17-.08-.24-.28-.61-.33-.83-.03-.15.02-.34,0-.5,2.84.06,5.69-.04,8.53,0l-.08,1.49Z"/>
        <path class="cls-9" d="M56.59,78.37c.09,3.4-.29,4.28-3.64,4.47,1.04-.85,2.94-2.99,1.99-4.31.09,0,.75-.23,1.66-.17Z"/>
        <path class="cls-3" d="M41.03,76.22c1.25.04,3.04-.05,4.22.17.24.04.58-.09.33.33-2.09-.03-4.19-.01-6.29,0-.08,0-.41,0-.5,0-2.77.02-5.61.19-8.36.17-.05,0-.94-.33-.99-.33v-.17c3.86-.05,7.73-.29,11.59-.17Z"/>
        <g>
          <path class="cls-5" d="M57.25,72.74c.62.12,4.57.09,4.97-.25.63-.52,5.61-11.74,6.62-13.58.55-1.01,1.78-2.01,2.15-2.73,1.62-.51,2.7-1.79,4.22-2.48.86-.39,1.89-.4,2.73-.66-.3.39-.44.91-.66,1.32-.38.72-.8,1.42-1.16,2.15-2,4.03-5.2,9.79-4.97,14.24.27,5.24,3.06,9.74,3.31,15.07.08,1.74.04,3.56-.17,5.3-1.46.02-3.66.32-5.46.33v-.5l2.57.17.25-.41-1.32-18.55-.5.08c-.07-.75,0-.77-.33-1.49s-1.02-1.34-1.74-1.66c-.87,1.72-3.03,6.54-4.97,6.96-1.69.36-6.2-.26-8.11-.5-3.46-.42-6.88-1.44-10.35-1.82.04-.19.2-1.81.17-1.9-.05-.16-2.24-2.31-2.4-2.4-2.01-1.19-3.05-.31-4.89.66-1.27-.7-3.06.08-4.55.17-.58.03-.38-.34-.5-.33-.39.02-.19.33-.33.33-1.83.07-7.89-.39-9.11,0-.05.02-.33.25-.17.33l11.76-.17c.61.31.75.12.33.83-1.47.35-11.11-.15-11.59.17-.11.07-.13.52-.08.58.35.45,10.08-.3,11.43.25-.11.21-.31.34-.33.5l-11.1.41,11.26.25c1.13,2.34,7.26,1.77,9.44,1.99-.07.18-.22.27-.17.5-.76.01-1.69.37-2.48.33-3.87-.12-7.74.12-11.59.17-2.29.03-4.65-.43-6.96.08,2.22.64,4.74.07,6.96.08.05,0,.94.33.99.33-.05.32.22.41.33.66.02.04-.02.12,0,.17l-8.11.25c2.72.5,5.53.19,8.28.25,1.14.03,2.32.14,3.48.17.02.16-.03.34,0,.5h-3.31c-1.07,0-8.47-.23-8.61.41.24.21.05.31.41.41,1.15.34,6.52-.03,8.2,0,1.23.03,2.43-.01,3.64,0,2.7.03,5.4.22,8.11.17,1.04-.02,4.53.18,5.22-.17.51-.26.55-1.27,1.08-1.82.16-.17.46-.36.66-.5,1.47.36,3.7,1.02,5.13,1.16.95,1.32-.95,3.45-1.99,4.31-13.12.77-26.97-.58-40.16,0-1.27-.46-1.82-1.24-2.07-2.57l.17-37.1c.5-1.12,1.26-1.6,2.4-1.9h40.74c1.45.35,2.22,1.11,2.57,2.57v28.82c.1.17.48.05.66.08Z"/>
          <g>
            <path class="cls-9" d="M14.61,57.34h5.63l-.08,3.89c-4.02.5-6.6,1.29-5.55-3.89Z"/>
            <path class="cls-8" d="M27.86,51.21c6.94-.22,13.92.31,20.87,0l.58.41-26.41.25c-.27-.15-.27-.41,0-.5.3-.1,4.21-.14,4.97-.17Z"/>
            <path class="cls-8" d="M37.8,58.83c1.2,0,10.36-.26,10.52.25.15.47-2.69.57-3.23.58-7.5.19-15.09-.3-22.61-.25.02-.44.29-.36.58-.41,3.16-.56,11.04-.14,14.74-.17Z"/>
            <path class="cls-8" d="M36.47,65.12c4.14-.03,8.28.02,12.42,0l-.66.66-25.59-.08c-.11-.18.5-.4.58-.41,2.04-.47,10.49-.15,13.25-.17Z"/>
            <path class="cls-8" d="M37.22,70.09c-1.17.62-2.19.94-2.82,2.15-1.34-.55-11.08.2-11.43-.25-.04-.05-.03-.51.08-.58.48-.32,10.12.18,11.59-.17.42-.71.28-.52-.33-.83l-11.76.17c-.16-.08.12-.32.17-.33,1.22-.39,7.28.07,9.11,0,.14,0-.06-.31.33-.33.11,0-.08.37.5.33,1.49-.09,3.28-.87,4.55-.17Z"/>
            <path class="cls-9" d="M19.99,67.28h-5.05c.3-.5-.17-2.63-.08-2.73.28-.32,4.56.19,5.3-.25.17.92.15,2.1-.17,2.98Z"/>
            <path class="cls-5" d="M20.33,70.76c.03.43.09,2.86-.17,2.98-.66-.44-4.56-.1-4.89-.33-.31-.22.18-2.02-.25-2.4l5.3-.25Z"/>
            <path class="cls-8" d="M44.25,60.16c.55,0,3.73-.33,2.82.66l-24.59-.08c7.19-.56,14.54-.54,21.78-.58Z"/>
            <path class="cls-5" d="M20.16,51.71c.07.87-.05,1.78,0,2.65-.73-.13-4.9.28-5.13-.25-.09-.2-.08-2.26.25-2.4.65-.29,3.93.22,4.89,0Z"/>
            <polygon class="cls-8" points="23.39 63.8 49.47 63.88 22.56 64.3 22.4 63.97 23.39 63.8"/>
            <path class="cls-8" d="M44.75,57.34c1.08,0,2.45-.11,3.48,0,.12.01,1.58.13,1.32.5l-27.08-.08c7.4-.3,14.87-.39,22.27-.41Z"/>
            <path class="cls-8" d="M32.99,66.62l15.65.41c-1.98.07-14.99.72-15.82.25-.23-.13-.04-.55.17-.66Z"/>
            <path class="cls-9" d="M22.56,49.89c9.02.16,18.07-.33,27.08.25l-13.66.08-13.41-.33Z"/>
            <polygon class="cls-8" points="34.98 52.7 47.48 52.95 34.98 53.37 34.98 52.7"/>
            <path class="cls-9" d="M20.16,64.3c-.74.44-5.02-.08-5.3.25-.09.1.39,2.23.08,2.73h5.05s.35.04.08.33l-5.13.17-.41-4.06,5.55-.08c.52.33.08.63.08.66Z"/>
            <path class="cls-9" d="M34.07,72.74c-.04.33.04.41.17.66l-11.26-.25,11.1-.41Z"/>
            <path class="cls-8" d="M31.09,78.87v.83c-1.68-.03-7.05.34-8.2,0-.36-.11-.17-.2-.41-.41.15-.65,7.54-.41,8.61-.41Z"/>
            <path class="cls-8" d="M23.72,52.7c.44-.13,8.78-.12,9.27,0,.24.06.43.12.41.41-1.25.21-9.5.54-10.02.25-.34-.19.1-.59.33-.66Z"/>
            <path class="cls-8" d="M15.11,76.55c6.35-.33,7.24.94.17.66l-.08,2.4,4.72.08.17-1.99.08,2.24-5.22.08.17-3.48Z"/>
            <path class="cls-8" d="M20.33,70.76l-5.3.25c.42.39-.06,2.18.25,2.4.33.23,4.23-.11,4.89.33-.71-.13-4.97.17-5.22,0-.37-.26.38-3.07-.58-3.39l5.88-.25c.49.32.07.5.08.66Z"/>
            <path class="cls-9" d="M20.16,51.71c-.96.22-4.23-.29-4.89,0-.33.15-.34,2.2-.25,2.4.23.52,4.4.12,5.13.25l-.25.33h-4.97l-.41-3.39,5.55-.25c.49.32.07.5.08.66Z"/>
            <polygon class="cls-8" points="22.73 66.78 27.2 66.78 31.42 67.19 26.87 67.28 22.73 66.78"/>
            <path class="cls-8" d="M30.76,77.71c.06.18.22.27.17.5-2.75-.06-5.56.25-8.28-.25l8.11-.25Z"/>
            <path class="cls-3" d="M34.4,78.87c.05.22.25.59.33.83-1.21-.01-2.41.03-3.64,0v-.83h3.31Z"/>
            <path class="cls-9" d="M14.78,62.31c.62-.2,4.65-.14,5.22.41-.06.33-4.68.35-5.05.25-.15-.04-.6-.52-.17-.66Z"/>
            <path class="cls-8" d="M29.43,76.39v.17c-2.22-.01-4.74.55-6.96-.08,2.31-.51,4.67-.05,6.96-.08Z"/>
            <path class="cls-9" d="M14.78,68.44c.25-.13,5.22-.19,5.55.41-1.23-.1-4.36.43-5.38.08-.34-.11-.37-.39-.17-.5Z"/>
            <path class="cls-8" d="M16.6,75.06c.99-.08,2.7-.07,3.56.41-1.82.1-3.68.21-5.46,0,.52-.3,1.33-.37,1.9-.41Z"/>
            <path class="cls-9" d="M14.61,56.02c1.85.05,3.71-.11,5.55.08-.74.45-1.89.23-2.73.25-.69.01-2.35.26-2.82-.33Z"/>
            <path class="cls-8" d="M14.61,49.72l5.71.25c-1.71.06-3.51.21-5.22.08-.25-.02-.76.13-.5-.33Z"/>
            <g>
              <path class="cls-9" d="M19.75,44.59c3.82-.13,15.7-.67,18.71,0,1.03.23,1.26,2.22.91,2.9-.56,1.09-21.62-.32-24.43.25l-.17-2.98c1.66.14,3.32-.11,4.97-.17Z"/>
              <path class="cls-5" d="M16.6,44.92c6.75-.78,14.96.58,21.86,0l.25,2.07-23.43.25c-.63-2-.5-2.11,1.32-2.32Z"/>
            </g>
          </g>
        </g>
      </g>
    </g>
  </g>
</svg>