<?xml version="1.0" encoding="UTF-8" standalone="no"?>
<svg
   xmlns:dc="http://purl.org/dc/elements/1.1/"
   xmlns:cc="http://creativecommons.org/ns#"
   xmlns:rdf="http://www.w3.org/1999/02/22-rdf-syntax-ns#"
   xmlns:svg="http://www.w3.org/2000/svg"
   xmlns="http://www.w3.org/2000/svg"
   xmlns:sodipodi="http://sodipodi.sourceforge.net/DTD/sodipodi-0.dtd"
   xmlns:inkscape="http://www.inkscape.org/namespaces/inkscape"
   id="a"
   viewBox="0 0 416.001 416.001"
   version="1.1">
  <defs
     id="defs5">
    <clipPath
       id="b">
      <path
         d="M 232,416 C 130.542,416 48,333.458 48,232 48,130.542 130.542,48 232,48 c 101.458,0 184,82.542 184,184 0,101.458 -82.542,184 -184,184 z m 0,-336 c -83.813,0 -152,68.187 -152,152 0,83.813 68.187,152 152,152 83.813,0 152,-68.187 152,-152 C 384,148.187 315.813,80 232,80 Z"
         fill="none"
         stroke-width="0"
         id="path2" />
    </clipPath>
  </defs>
  <path
     d="m 256,351.833 c -8.836,0 -16,-7.164 -16,-16 V 208 c 0,-8.836 7.164,-16 16,-16 8.836,0 16,7.164 16,16 v 127.833 c 0,8.836 -7.164,16 -16,16 z"
     fill="#34a853"
     stroke-width="0"
     id="path7" />
  <path
     d="m 112,351.833 c -8.836,0 -16,-7.164 -16,-16 V 160 c 0,-8.836 7.164,-16 16,-16 8.836,0 16,7.164 16,16 v 175.833 c 0,8.836 -7.164,16 -16,16 z"
     fill="#34a853"
     stroke-width="0"
     id="path9" />
  <path
     d="m 184,368 c -8.836,0 -16,-7.164 -16,-16 V 112 c 0,-8.836 7.164,-16 16,-16 8.836,0 16,7.164 16,16 v 240 c 0,8.836 -7.164,16 -16,16 z"
     fill="#34a853"
     stroke-width="0"
     id="path11" />
  <path
     d="M 184,368 C 82.542,368 0,285.458 0,184 h 32 c 0,83.813 68.187,152 152,152 83.813,0 152,-68.187 152,-152 h 32 c 0,101.458 -82.542,184 -184,184 z"
     fill="#fbbc04"
     stroke-width="0"
     id="path13" />
  <path
     d="M 368,184 H 336 C 336,100.187 267.813,32 184,32 100.187,32 32,100.187 32,184 H 0 C 0,82.542 82.542,0 184,0 285.458,0 368,82.542 368,184 Z"
     fill="#ea4335"
     stroke-width="0"
     id="path15" />
  <path
     d="m 400,416 c -4.095,0 -8.189,-1.562 -11.313,-4.686 l -97.206,-97.206 c -6.249,-6.248 -6.249,-16.379 0,-22.627 6.249,-6.248 16.379,-6.249 22.627,0 l 97.206,97.206 c 6.249,6.249 6.249,16.379 0,22.627 -3.125,3.125 -7.219,4.687 -11.314,4.687 z"
     fill="#4285f4"
     stroke-width="0"
     id="path17" />
  <path
     d="M 314.107,314.107 291.48,291.48 c 59.265,-59.265 59.265,-155.695 0,-214.96 L 314.107,53.893 C 348.86,88.646 368,134.852 368,184 c 0,49.148 -19.14,95.354 -53.893,130.107 z"
     fill="#4285f4"
     stroke-width="0"
     id="path19" />
  <g
     clip-path="url(#b)"
     id="g23"
     transform="translate(-48,-48)">
    <path
       d="m 448,464 c -4.095,0 -8.189,-1.562 -11.313,-4.687 l -144,-143.999 c -6.249,-6.249 -6.249,-16.379 0,-22.627 6.248,-6.249 16.379,-6.249 22.627,0 l 144,144 c 6.249,6.248 6.249,16.379 0,22.627 -3.124,3.125 -7.219,4.687 -11.313,4.687 z"
       fill="#4285f4"
       stroke-width="0"
       id="path21" />
  </g>
</svg>
