<?xml version="1.0" encoding="UTF-8"?>
<svg id="Dbt-Icon--Streamline-Svg-Logos" xmlns="http://www.w3.org/2000/svg" version="1.1" viewBox="0 0 24 24">
  <!-- Generator: Adobe Illustrator 30.2.1, SVG Export Plug-In . SVG Version: 2.1.1 Build 1)  -->
  <defs>
    <style>
      .st0 {
        fill: #ff694a;
      }
    </style>
  </defs>
  <path class="st0" d="M22.75,1.23c.55.53.91,1.23,1,2,0,.32-.08.53-.28.93-.19.4-2.55,4.48-3.25,5.61-.4.66-.62,1.44-.62,2.21s.21,1.55.62,2.21c.7,1.13,3.06,5.23,3.25,5.63.19.4.28.59.28.91-.08.76-.42,1.47-.98,1.98-.53.55-1.23.91-1.98.98-.32,0-.53-.08-.91-.28-.38-.19-4.55-2.49-5.67-3.19-.08-.04-.17-.11-.28-.15l-5.57-3.29c.13,1.06.59,2.08,1.36,2.83.15.15.3.28.47.4-.13.06-.28.13-.4.21-1.13.7-5.23,3.06-5.63,3.25-.4.19-.59.28-.93.28-.76-.08-1.47-.42-1.98-.98-.55-.53-.91-1.23-1-2,.02-.32.11-.64.28-.91.19-.4,2.55-4.5,3.25-5.63.4-.66.62-1.42.62-2.21s-.21-1.55-.62-2.21c-.7-1.17-3.08-5.27-3.25-5.67-.17-.28-.25-.59-.28-.91.08-.76.42-1.47.98-2,.53-.55,1.23-.89,2-.98.32.02.64.11.93.28.34.15,3.34,1.89,4.93,2.83l.36.21c.13.09.23.15.32.19l.17.11,5.67,3.36c-.13-1.27-.79-2.44-1.81-3.23.13-.06.28-.13.4-.21,1.13-.7,5.23-3.08,5.63-3.25.28-.17.59-.25.93-.28.74.08,1.44.42,1.98.98ZM12.3,13.51l1.21-1.21c.17-.17.17-.42,0-.59l-1.21-1.21c-.17-.17-.42-.17-.59,0l-1.21,1.21c-.17.17-.17.42,0,.59l1.21,1.21c.15.15.42.15.59,0Z"/>
</svg>