<?xml version="1.0" encoding="UTF-8"?>
<svg id="Layer_1" xmlns="http://www.w3.org/2000/svg" xmlns:xlink="http://www.w3.org/1999/xlink" version="1.1" viewBox="0 0 256 256">
  <!-- Generator: Adobe Illustrator 30.2.1, SVG Export Plug-In . SVG Version: 2.1.1 Build 1)  -->
  <defs>
    <style>
      .st0 {
        fill: none;
      }

      .st1 {
        fill: #a9cbd4;
      }

      .st2 {
        clip-path: url(#clippath);
      }
    </style>
    <clipPath id="clippath">
      <rect class="st0" x="66" y="28" width="123.04" height="200"/>
    </clipPath>
  </defs>
  <rect class="st1" width="256" height="256" rx="60" ry="60"/>
  <g class="st2">
    <path d="M163,138.68c-7.78,0-14.75,3.45-19.53,8.87l-12.24-8.66c1.3-3.58,2.04-7.42,2.04-11.44s-.72-7.73-1.98-11.25l12.21-8.57c4.78,5.4,11.73,8.83,19.49,8.83,14.36,0,26.04-11.68,26.04-26.04s-11.68-26.04-26.04-26.04-26.04,11.68-26.04,26.04c0,2.57.39,5.05,1.09,7.4l-12.22,8.58c-5.1-6.33-12.45-10.75-20.83-12.1v-14.73c11.8-2.48,20.68-12.96,20.68-25.48,0-14.36-11.68-26.04-26.04-26.04s-26.04,11.68-26.04,26.04c0,12.36,8.66,22.71,20.22,25.36v14.92c-15.78,2.77-27.81,16.54-27.81,33.1s12.16,30.46,28.05,33.13v15.75c-11.68,2.57-20.45,12.98-20.45,25.42,0,14.36,11.68,26.04,26.04,26.04s26.04-11.68,26.04-26.04c0-12.44-8.77-22.86-20.45-25.42v-15.75c8.04-1.35,15.32-5.59,20.48-11.91l12.32,8.72c-.68,2.33-1.07,4.78-1.07,7.32,0,14.36,11.68,26.04,26.04,26.04s26.04-11.68,26.04-26.04-11.68-26.04-26.04-26.04ZM163,77.78c6.96,0,12.63,5.67,12.63,12.63s-5.66,12.63-12.63,12.63-12.63-5.67-12.63-12.63,5.66-12.63,12.63-12.63ZM87.01,54.07c0-6.96,5.66-12.63,12.63-12.63s12.63,5.67,12.63,12.63-5.66,12.63-12.63,12.63-12.63-5.67-12.63-12.63ZM112.26,201.76c0,6.96-5.66,12.63-12.63,12.63s-12.63-5.66-12.63-12.63,5.66-12.63,12.63-12.63,12.63,5.67,12.63,12.63ZM99.64,145.06c-9.71,0-17.61-7.9-17.61-17.61s7.9-17.61,17.61-17.61,17.61,7.9,17.61,17.61-7.9,17.61-17.61,17.61ZM163,177.35c-6.96,0-12.63-5.67-12.63-12.63s5.66-12.63,12.63-12.63,12.63,5.67,12.63,12.63-5.66,12.63-12.63,12.63Z"/>
  </g>
</svg>